<svg xmlns="http://www.w3.org/2000/svg">

    <!-- Facebook -->
    <symbol id="facebook" viewBox="0 0 448 512">
        <path d="M400 32H48A48 48 0 0 0 0 80v352a48 48 0 0 0 48 48h137.25V327.69h-63V256h63v-54.64c0-62.15 37-96.48 93.67-96.48 27.14 0 55.52 4.84 55.52 4.84v61h-31.27c-30.81 0-40.42 19.12-40.42 38.73V256h68.78l-11 71.69h-57.78V480H400a48 48 0 0 0 48-48V80a48 48 0 0 0-48-48z"/>
    </symbol>

    <!--Twitter-->
    <symbol id="twitter" viewBox="0 0 448 512">
        <path d="M400 32H48C21.5 32 0 53.5 0 80v352c0 26.5 21.5 48 48 48h352c26.5 0 48-21.5 48-48V80c0-26.5-21.5-48-48-48zm-48.9 158.8c.2 2.8.2 5.7.2 8.5 0 86.7-66 186.6-186.6 186.6-37.2 0-71.7-10.8-100.7-29.4 5.3.6 10.4.8 15.8.8 30.7 0 58.9-10.4 81.4-28-28.8-.6-53-19.5-61.3-45.5 10.1 1.5 19.2 1.5 29.6-1.2-30-6.1-52.5-32.5-52.5-64.4v-.8c8.7 4.9 18.9 7.9 29.6 8.3a65.447 65.447 0 0 1-29.2-54.6c0-12.2 3.2-23.4 8.9-33.1 32.3 39.8 80.8 65.8 135.2 68.6-9.3-44.5 24-80.6 64-80.6 18.9 0 35.9 7.9 47.9 20.7 14.8-2.8 29-8.3 41.6-15.8-4.9 15.2-15.2 28-28.8 36.1 13.2-1.4 26-5.1 37.8-10.2-8.9 13.1-20.1 24.7-32.9 34z"/>
    </symbol>

    <!-- heart-->
    <symbol id="heart" viewBox="0 0 50 50">
        <path d="M45.146,6.113c-5.352-4.561-13.311-3.74-18.223,1.328L25,9.424l-1.924-1.982C18.174,2.373,10.205,1.553,4.854,6.113
            c-6.133,5.234-6.455,14.629-0.967,20.303l18.896,19.512c1.221,1.26,3.203,1.26,4.424,0l18.896-19.512
            C51.602,20.742,51.279,11.348,45.146,6.113z"/>
    </symbol>

    <!-- Pate de chien-->  
    <symbol  id="paw" viewBox="0 0 50 50">
        <path d="M25,21.875c-7.755,0-18.75,11.988-18.75,19.556c0,3.408,2.618,5.444,7.006,5.444c4.77,0,7.919-2.449,11.744-2.449
            c3.858,0,7.017,2.449,11.744,2.449c4.388,0,7.006-2.036,7.006-5.444C43.75,33.863,32.755,21.875,25,21.875z M10.617,20.644
            c-1.016-3.384-4.145-5.575-6.988-4.896s-4.325,3.974-3.31,7.357s4.145,5.575,6.988,4.896S11.633,24.027,10.617,20.644z
            M18.891,18.614c3.021-0.795,4.533-4.877,3.377-9.117s-4.543-7.032-7.564-6.237s-4.533,4.877-3.377,9.117S15.87,19.41,18.891,18.614
            z M46.37,15.749c-2.844-0.68-5.972,1.512-6.988,4.896c-1.016,3.384,0.466,6.678,3.31,7.357s5.972-1.512,6.988-4.896
            C50.695,19.723,49.214,16.429,46.37,15.749z M31.109,18.614c3.021,0.795,6.408-1.997,7.564-6.237s-0.355-8.321-3.377-9.117
            s-6.408,1.997-7.564,6.237S28.088,17.819,31.109,18.614z"/>
    </symbol>

    <!-- Mountain -->
    <symbol id="mountain" viewBox="0 0 50 50">
        <path d="M49.604,41.148l-22.5-35C26.643,5.433,25.851,5,25,5s-1.643,0.433-2.103,1.148l-22.5,35c-0.495,0.77-0.53,1.747-0.091,2.55
            S1.585,45,2.5,45h45c0.915,0,1.756-0.499,2.194-1.303C50.133,42.895,50.098,41.918,49.604,41.148L49.604,41.148z M25,12.124
            L31.671,22.5H25l-5,5l-2.974-2.974L25,12.124z"/>
    </symbol>
    <!-- arrow menu-->
    <symbol id="arrow" viewBox="0 0 10 10">
        <g>
            <polygon points="5,0.925 0.574,5.352 9.427,5.352 	"/>
        </g>
    </symbol>
    
    <!-- location-->
    <symbol id="location" viewBox="0 0 384 512">
        <path d="M172.268 501.67C26.97 291.031 0 269.413 0 192 0 85.961 85.961 0 192 0s192 85.961 192 192c0 77.413-26.97 99.031-172.268 309.67-9.535 13.774-29.93 13.773-39.464 0zM192 272c44.183 0 80-35.817 80-80s-35.817-80-80-80-80 35.817-80 80 35.817 80 80 80z"/>
    </symbol>

    <!--calendar-->
    <symbol id="calendar" viewBox="0 0 448 512">
        <path d="M148 288h-40c-6.6 0-12-5.4-12-12v-40c0-6.6 5.4-12 12-12h40c6.6 0 12 5.4 12 12v40c0 6.6-5.4 12-12 12zm108-12v-40c0-6.6-5.4-12-12-12h-40c-6.6 0-12 5.4-12 12v40c0 6.6 5.4 12 12 12h40c6.6 0 12-5.4 12-12zm96 0v-40c0-6.6-5.4-12-12-12h-40c-6.6 0-12 5.4-12 12v40c0 6.6 5.4 12 12 12h40c6.6 0 12-5.4 12-12zm-96 96v-40c0-6.6-5.4-12-12-12h-40c-6.6 0-12 5.4-12 12v40c0 6.6 5.4 12 12 12h40c6.6 0 12-5.4 12-12zm-96 0v-40c0-6.6-5.4-12-12-12h-40c-6.6 0-12 5.4-12 12v40c0 6.6 5.4 12 12 12h40c6.6 0 12-5.4 12-12zm192 0v-40c0-6.6-5.4-12-12-12h-40c-6.6 0-12 5.4-12 12v40c0 6.6 5.4 12 12 12h40c6.6 0 12-5.4 12-12zm96-260v352c0 26.5-21.5 48-48 48H48c-26.5 0-48-21.5-48-48V112c0-26.5 21.5-48 48-48h48V12c0-6.6 5.4-12 12-12h40c6.6 0 12 5.4 12 12v52h128V12c0-6.6 5.4-12 12-12h40c6.6 0 12 5.4 12 12v52h48c26.5 0 48 21.5 48 48zm-48 346V160H48v298c0 3.3 2.7 6 6 6h340c3.3 0 6-2.7 6-6z"/>
    </symbol>

    <!-- price-->
    <symbol id="price" viewBox="0 0 512 512">
        <path d="M0 252.118V48C0 21.49 21.49 0 48 0h204.118a48 48 0 0 1 33.941 14.059l211.882 211.882c18.745 18.745 18.745 49.137 0 67.882L293.823 497.941c-18.745 18.745-49.137 18.745-67.882 0L14.059 286.059A48 48 0 0 1 0 252.118zM112 64c-26.51 0-48 21.49-48 48s21.49 48 48 48 48-21.49 48-48-21.49-48-48-48z"/>
    </symbol>

    <!--phone-->
    <symbol id="phone" viewBox="0 0 512 512">
        <path d="M493.4 24.6l-104-24c-11.3-2.6-22.9 3.3-27.5 13.9l-48 112c-4.2 9.8-1.4 21.3 6.9 28l60.6 49.6c-36 76.7-98.9 140.5-177.2 177.2l-49.6-60.6c-6.8-8.3-18.2-11.1-28-6.9l-112 48C3.9 366.5-2 378.1.6 389.4l24 104C27.1 504.2 36.7 512 48 512c256.1 0 464-207.5 464-464 0-11.2-7.7-20.9-18.6-23.4z"/>
    </symbol>

</svg>
