<?xml version="1.0" encoding="utf-8"?>
<!-- Generator: Adobe Illustrator 15.0.0, SVG Export Plug-In . SVG Version: 6.00 Build 0)  -->
<!DOCTYPE svg PUBLIC "-//W3C//DTD SVG 1.1//EN" "http://www.w3.org/Graphics/SVG/1.1/DTD/svg11.dtd">
<svg version="1.1" id="Calque_1" xmlns="http://www.w3.org/2000/svg" xmlns:xlink="http://www.w3.org/1999/xlink" x="0px" y="0px"
	 width="200px" height="81px" viewBox="0 0 200 81" enable-background="new 0 0 200 81" xml:space="preserve">
<g>
	<path fill="#41BEE2" d="M5.122,80.194c-0.447-0.181-0.905-0.377-1.368-0.583C3.289,79.4,2.855,79.094,2.452,78.69
		s-0.758-0.965-1.056-1.684c-0.299-0.868-0.5-1.723-0.605-2.561c-0.105-0.837-0.143-1.811-0.114-2.92
		c0-1.552,0.114-2.906,0.338-4.06s0.577-2.328,1.057-3.524c0.059-0.093,0.171-0.351,0.335-0.785s0.359-0.908,0.585-1.416
		c0.224-0.509,0.395-0.899,0.516-1.166c0.239-0.51,0.607-1.188,1.098-2.044C5.1,57.677,5.63,56.849,6.2,56.042
		c0.868-1.289,1.587-2.307,2.155-3.056c0.568-0.746,1.107-1.377,1.616-1.886c0.508-0.509,1.085-0.995,1.727-1.46
		c0.645-0.46,1.476-1.039,2.493-1.728c0.66-0.478,1.383-0.731,2.176-0.763c0.794-0.031,1.535,0.145,2.223,0.518
		c0.688,0.372,1.197,0.921,1.526,1.64c0.329,0.626,0.495,1.386,0.495,2.266c0,0.882-0.136,1.812-0.403,2.784
		c-0.271,0.975-0.645,1.895-1.122,2.758c-0.48,0.873-1.035,1.588-1.662,2.158c-0.39,0.359-0.741,0.495-1.057,0.402
		c-0.313-0.088-0.679-0.329-1.1-0.719c-0.268-0.509-0.411-0.807-0.426-0.898c-0.015-0.088,0.038-0.149,0.158-0.176
		c0.18-0.21,0.419-0.569,0.719-1.079c0.298-0.508,0.596-1.057,0.896-1.64c0.3-0.583,0.508-1.057,0.629-1.416
		c0.239-1.254,0.403-2.144,0.494-2.67c0.089-0.521,0-0.921-0.27-1.188c-0.118-0.118-0.292-0.166-0.518-0.136
		c-0.223,0.03-0.589,0.179-1.098,0.447c-0.69,0.302-1.587,0.969-2.694,1.999c-1.107,1.035-2.126,2.179-3.051,3.437
		c-1.197,1.583-2.201,2.99-3.008,4.219c-0.811,1.227-1.425,2.485-1.841,3.77c-0.062,0.123-0.224,0.509-0.496,1.167
		c0.031,0.122-0.013,0.411-0.133,0.876s-0.254,0.859-0.406,1.193c-0.329,1.376-0.521,2.806-0.583,4.282
		c-0.059,1.482,0.022,2.793,0.248,3.929c0.226,1.14,0.562,1.934,1.011,2.381c0.388,0.271,0.92,0.359,1.594,0.271
		c0.673-0.092,1.445-0.303,2.313-0.632c0.868-0.328,1.749-0.688,2.647-1.078c0.719-0.298,1.377-0.626,1.975-0.986
		c0.599-0.359,1.048-0.671,1.348-0.942c0.237-0.18,0.543-0.364,0.921-0.562c0.373-0.192,0.693-0.289,0.964-0.289
		c0.417-0.149,0.658-0.21,0.719-0.18c0.057,0.03,0.087,0.162,0.087,0.403c0,0.417-0.232,0.882-0.695,1.39
		c-0.465,0.509-1.054,0.974-1.773,1.395c-0.241,0.236-0.555,0.49-0.942,0.763c-0.39,0.268-0.793,0.478-1.212,0.627
		c-0.629,0.478-1.407,0.942-2.334,1.394c-0.929,0.448-1.863,0.79-2.806,1.031S5.9,80.343,5.122,80.194z"/>
	<path fill="#41BEE2" d="M22.81,75.254c-0.21,0.03-0.427,0.025-0.651-0.023c-0.224-0.043-0.443-0.14-0.651-0.289
		c-0.239-0.24-0.406-0.43-0.494-0.561c-0.092-0.136-0.114-0.352-0.068-0.653c0.046-0.298,0.142-0.763,0.292-1.39
		c0.149-0.478,0.329-1.145,0.539-2c0.208-0.851,0.435-1.696,0.673-2.533c0.09-0.482,0.217-0.974,0.381-1.482
		c0.165-0.508,0.335-0.981,0.515-1.416c0.18-0.434,0.316-0.771,0.405-1.009c0.239-0.837,0.472-1.573,0.697-2.2
		c0.224-0.627,0.5-1.354,0.829-2.179c0.329-0.819,0.732-1.921,1.212-3.298c0.66-1.797,1.16-3.165,1.504-4.107
		s0.598-1.631,0.765-2.065c0.163-0.434,0.276-0.771,0.335-1.012c0-0.237,0.068-0.417,0.202-0.54
		c0.134-0.118,0.307-0.179,0.515-0.179c0.421,0,0.759,0.2,1.013,0.608c0.254,0.403,0.41,0.881,0.469,1.434
		c0.062,0.558-0.031,1.069-0.267,1.552c-0.48,1.075-0.989,2.355-1.526,3.836c-0.54,1.482-1.066,2.934-1.574,4.354
		c-0.509,1.425-0.987,2.626-1.436,3.617c0,0.118-0.046,0.328-0.134,0.626c-0.092,0.299-0.197,0.57-0.316,0.808
		c-0.118,0.24-0.285,0.569-0.493,0.99c0,0.118-0.046,0.342-0.133,0.671c-0.092,0.329-0.21,0.737-0.36,1.215
		c-0.121,0.359-0.263,0.824-0.427,1.39c-0.165,0.569-0.276,1.048-0.335,1.438c0.149-0.271,0.462-0.675,0.943-1.215
		c0.478-0.534,0.925-0.999,1.346-1.389c0.478-0.421,1.017-0.882,1.618-1.39c0.597-0.51,1.077-0.887,1.434-1.123
		c0.359-0.241,0.824-0.557,1.395-0.946c0-0.119,0.052-0.185,0.158-0.202c0.103-0.014,0.214-0.022,0.335-0.022
		s0.187-0.013,0.202-0.043c0.015-0.031,0.024-0.105,0.024-0.224c0-0.149,0.171-0.285,0.515-0.404
		c0.344-0.122,0.748-0.219,1.212-0.293c0.464-0.075,0.846-0.109,1.145-0.109c0.359,0,0.644,0.073,0.852,0.224
		c0.208,0.148,0.48,0.478,0.809,0.985c0.359,0.479,0.59,1.057,0.695,1.728c0.105,0.676,0.038,1.373-0.202,2.088
		c0,0.24-0.037,0.578-0.111,1.013c-0.075,0.434-0.114,0.89-0.114,1.367l-0.268,1.438h0.719c0.237,0,0.566,0.074,0.987,0.224
		c0.118,0.118,0.239,0.232,0.359,0.337c0.118,0.105,0.239,0.158,0.36,0.158c0.359,0,0.493,0.141,0.403,0.425
		c-0.09,0.285-0.316,0.548-0.673,0.785c-0.719,0.478-1.37,0.719-1.953,0.719c-0.583,0-1.116-0.241-1.594-0.719
		c-0.48-0.509-0.778-1.078-0.896-1.705c-0.123-0.628-0.061-1.421,0.178-2.381c0.121-1.315,0.186-2.279,0.204-2.894
		c0.014-0.614-0.145-0.921-0.474-0.921c-0.298,0-0.824,0.201-1.569,0.605c-0.75,0.403-1.587,0.951-2.517,1.64
		c-0.925,0.688-1.839,1.451-2.736,2.288c-0.898,0.837-1.648,1.706-2.244,2.604c-0.36,0.446-0.707,0.846-1.035,1.188
		C23.467,75.038,23.139,75.227,22.81,75.254z"/>
	<path fill="#41BEE2" d="M42.517,76.244c-0.239-0.241-0.412-0.539-0.515-0.899c-0.105-0.359-0.143-0.719-0.112-1.078
		c0.028-0.359,0.103-0.657,0.224-0.899c0-0.236,0.037-0.425,0.112-0.561c0.074-0.131,0.099-0.259,0.068-0.382
		c-0.031-0.118,0-0.328,0.09-0.627c0.09-0.298,0.18-0.583,0.27-0.854c0.208-0.478,0.434-1.052,0.673-1.728
		c0.239-0.671,0.462-1.337,0.672-1.999c0.211-0.657,0.391-1.224,0.54-1.705c0.149-0.479,0.239-0.776,0.27-0.896
		c0-0.359,0.239-0.556,0.717-0.587c0.359-0.118,0.628-0.127,0.809-0.021c0.18,0.104,0.419,0.399,0.719,0.877
		c0.239,0.241,0.329,0.601,0.27,1.078c-0.062,0.478-0.254,1.074-0.583,1.793c-0.123,0.241-0.263,0.583-0.427,1.035
		c-0.165,0.447-0.278,0.85-0.338,1.21c-0.121,0.241-0.26,0.579-0.427,1.013c-0.162,0.434-0.307,0.847-0.425,1.232
		c-0.062,0.152-0.119,0.368-0.18,0.652c-0.062,0.285-0.134,0.583-0.224,0.899c-0.09,0.312-0.21,0.587-0.359,0.828
		c-0.27,1.228-0.517,1.946-0.741,2.157C43.394,76.989,43.025,76.81,42.517,76.244z"/>
	<path fill="#41BEE2" d="M54.727,77.813c-1.315,0-2.394-0.5-3.231-1.504c-0.837-1.004-1.24-2.254-1.21-3.748
		c0.057-1.079,0.276-2.236,0.649-3.481c0.373-1.24,0.877-2.438,1.504-3.591c0.627-1.152,1.315-2.161,2.065-3.029
		c0.75-0.868,1.526-1.482,2.337-1.842c0.298-0.148,0.618-0.267,0.964-0.359c0.342-0.088,0.692-0.131,1.052-0.131
		c0.329,0,0.675,0.052,1.035,0.153c0.359,0.104,0.657,0.219,0.899,0.337c0.508,0.211,0.894,0.465,1.166,0.764
		c0.268,0.302,0.508,0.763,0.719,1.395c0.087,0.564,0.131,0.973,0.131,1.209c0,0.241-0.075,0.601-0.224,1.079
		c-0.359,1.078-0.824,2.003-1.39,2.783c-0.57,0.776-1.333,1.434-2.289,1.974c-0.241,0.153-0.518,0.263-0.833,0.338
		c-0.315,0.074-0.636,0.113-0.965,0.113c-0.601,0-1.175-0.113-1.727-0.338c-0.557-0.224-0.995-0.561-1.324-1.008l-0.315-0.359
		l-0.136,0.359c-0.298,0.807-0.53,1.557-0.693,2.245c-0.166,0.688-0.25,1.314-0.25,1.885c0,0.359,0.04,0.701,0.114,1.03
		c0.075,0.328,0.184,0.614,0.338,0.854c0.118,0.18,0.32,0.308,0.605,0.382c0.285,0.074,0.592,0.109,0.92,0.109
		c0.207,0,0.425-0.004,0.649-0.021c0.224-0.014,0.443-0.066,0.653-0.157c0.508-0.181,0.92-0.374,1.232-0.584
		c0.315-0.206,0.635-0.434,0.968-0.671l0.175-0.092h-0.044c0.36-0.18,0.825-0.447,1.395-0.807c0.118,0,0.237-0.074,0.36-0.224
		c0.237-0.123,0.543-0.074,0.92,0.131c0.373,0.211,0.561,0.483,0.561,0.812c-0.031,0.149-0.167,0.382-0.408,0.692
		c-0.237,0.316-0.5,0.609-0.785,0.878c-0.284,0.271-0.517,0.42-0.696,0.451c-0.027,0.026-0.132,0.078-0.312,0.153
		s-0.303,0.145-0.359,0.202h0.044c-0.268,0.359-0.54,0.538-0.807,0.538h-0.359c-0.123,0.211-0.509,0.443-1.166,0.697
		C55.998,77.686,55.357,77.813,54.727,77.813z M56.748,67.936c0.539,0,1.009-0.158,1.417-0.469c0.403-0.315,0.753-0.667,1.052-1.057
		c0.6-0.807,0.951-1.592,1.056-2.354c0.105-0.768,0.009-1.299-0.293-1.597c-0.18-0.088-0.333-0.14-0.469-0.157
		c-0.136-0.014-0.399,0.039-0.785,0.157c-0.271,0.061-0.644,0.285-1.122,0.676c-0.482,0.385-0.951,0.819-1.416,1.302
		c-0.465,0.478-0.815,0.881-1.057,1.21l-0.583,0.942c0.242-0.087,0.474-0.141,0.697-0.158c0.224-0.013,0.351,0.009,0.382,0.071
		c0,0.267,0.052,0.513,0.158,0.74c0.105,0.224,0.237,0.395,0.403,0.513C56.353,67.879,56.538,67.936,56.748,67.936z"/>
	<path fill="#41BEE2" d="M78.927,77.139c-0.302,0-0.609-0.163-0.921-0.491c-0.315-0.329-0.583-0.741-0.811-1.236
		c-0.224-0.491-0.333-0.965-0.333-1.412c0-0.451,0.109-1.289,0.333-2.517c0.228-1.228,0.504-2.468,0.833-3.727
		c0.237-0.775,0.316-1.228,0.224-1.346c-0.087-0.118-0.495,0.044-1.21,0.495c-0.421,0.211-0.793,0.426-1.123,0.649
		c-0.333,0.223-0.613,0.474-0.854,0.74c-0.149,0.123-0.373,0.316-0.675,0.584c-0.298,0.271-0.614,0.525-0.942,0.762
		c-0.386,0.303-0.881,0.72-1.482,1.259c-0.596,0.539-1.188,1.079-1.771,1.618s-1.026,0.955-1.324,1.254
		c-0.061,0.122-0.148,0.228-0.271,0.315c-0.118,0.092-0.254,0.145-0.403,0.158c-0.149,0.017-0.312-0.009-0.491-0.066
		c-0.333-0.092-0.636-0.285-0.921-0.583c-0.284-0.302-0.429-0.645-0.429-1.034c0-0.299,0.123-0.815,0.359-1.548
		c0.241-0.732,0.561-1.627,0.969-2.675c0.403-1.044,0.872-2.152,1.411-3.318c0.092-0.148,0.167-0.338,0.224-0.562
		c0.061-0.228,0.114-0.474,0.158-0.74c0.043-0.272,0.066-0.526,0.066-0.764c0-0.148,0.026-0.307,0.07-0.474
		c0.044-0.161,0.105-0.328,0.18-0.495c0.074-0.162,0.14-0.276,0.202-0.333c0.119-0.241,0.329-0.308,0.627-0.202
		c0.298,0.105,0.553,0.32,0.763,0.649c0.452,0.42,0.684,0.942,0.697,1.569c0.014,0.632-0.14,1.407-0.469,2.337
		c-0.123,0.21-0.219,0.412-0.293,0.604c-0.075,0.197-0.145,0.36-0.202,0.496c-0.062,0.136-0.118,0.276-0.18,0.425
		c0.118,0,0.39-0.136,0.806-0.403c0.421-0.267,0.912-0.569,1.482-0.898c0.452-0.329,0.846-0.636,1.192-0.921
		c0.342-0.285,0.632-0.509,0.873-0.67c0.241-0.167,0.391-0.251,0.452-0.251c0.119,0,0.268-0.044,0.448-0.132
		c0.18-0.091,0.328-0.196,0.447-0.314c0.123-0.118,0.254-0.193,0.408-0.224c0.237-0.031,0.417-0.105,0.535-0.224
		c0.241-0.181,0.557-0.232,0.942-0.158c0.391,0.074,0.75,0.231,1.078,0.469c0.329,0.241,0.496,0.509,0.496,0.811
		c0,0.119,0.074,0.256,0.224,0.404c0.241,0,0.394,0.372,0.473,1.122c0.075,0.745-0.009,1.465-0.25,2.152
		c0,0.452-0.083,0.986-0.246,1.618c-0.167,0.627-0.307,1.228-0.425,1.793c-0.241,0.75-0.404,1.407-0.496,1.978
		c-0.087,0.569-0.104,1.048-0.043,1.438c0.057,0.387,0.163,0.702,0.312,0.943c0.123,0.21,0.123,0.442,0,0.692
		C79.523,77.016,79.287,77.139,78.927,77.139z"/>
	<path fill="#41BEE2" d="M89.339,77.051c-1.495,0-2.586-0.54-3.275-1.618c-0.21-0.298-0.307-0.604-0.293-0.921
		c0.018-0.311,0.105-0.53,0.272-0.648c0.162-0.118,0.364-0.013,0.604,0.315c0.417,0.236,1.018,0.36,1.798,0.36
		c0.386,0,0.79-0.04,1.21-0.114c0.421-0.075,0.837-0.188,1.258-0.338c0.447-0.21,0.745-0.395,0.899-0.562
		c0.149-0.162,0.118-0.307-0.092-0.425h0.044c-0.776-0.211-1.565-0.549-2.354-1.014c-0.794-0.459-1.478-0.969-2.043-1.525
		c-0.57-0.552-0.899-1.052-0.991-1.504c-0.236-0.924-0.175-1.876,0.18-2.85c0.359-0.973,0.868-1.832,1.53-2.582
		c0.237-0.148,0.535-0.337,0.894-0.562c0.359-0.224,0.645-0.351,0.855-0.381v0.044c0.57-0.597,1.263-1.074,2.087-1.434
		c0.824-0.359,1.696-0.688,2.626-0.991l0.675-0.087c0.36-0.062,0.658-0.088,0.899-0.088c-0.031,0,0.026,0.021,0.18,0.065
		c0.149,0.044,0.281,0.083,0.403,0.109c0.18,0.092,0.329,0.137,0.448,0.137c0.39,0.061,0.749,0.241,1.078,0.538
		c0.329,0.299,0.592,0.654,0.785,1.057c0.193,0.404,0.263,0.785,0.202,1.145c-0.062,0.57-0.232,1.078-0.518,1.525
		c-0.285,0.448-0.618,0.702-1.008,0.764c0.061-0.031,0.021-0.084-0.114-0.158c-0.131-0.074-0.276-0.157-0.425-0.245l-0.137,0.088
		c-0.03-0.149-0.074-0.28-0.131-0.403c-0.092-0.181-0.136-0.382-0.136-0.605s0.013-0.474,0.043-0.741
		c0.062-0.329,0.071-0.521,0.022-0.583c-0.044-0.062-0.246-0.105-0.605-0.136c-0.42-0.088-1.025-0.013-1.819,0.224
		c-0.793,0.241-1.456,0.57-1.995,0.99c-0.662,0.417-1.214,0.815-1.662,1.188c-0.451,0.373-0.812,0.732-1.079,1.079
		c-0.268,0.342-0.508,0.74-0.719,1.188c-0.149,0.211-0.276,0.412-0.381,0.605c-0.105,0.197-0.158,0.368-0.158,0.517
		c0,0.329,0.25,0.667,0.741,1.013c0.496,0.343,1.236,0.742,2.223,1.188c0.781,0.329,1.438,0.688,1.977,1.079
		c0.54,0.386,0.912,0.837,1.123,1.346c0.057,0.118,0.079,0.263,0.065,0.425c-0.013,0.167-0.052,0.276-0.114,0.338
		c0.062,0.062,0.092,0.105,0.092,0.136V73.95c0.237,0.36,0.245,0.737,0.021,1.123c-0.223,0.39-0.601,0.728-1.122,1.013
		c-0.522,0.285-1.162,0.5-1.907,0.648h0.044c-0.39,0.123-0.771,0.202-1.144,0.25C90.023,77.028,89.668,77.051,89.339,77.051z"/>
	<path fill="#41BEE2" d="M123.146,78.532c-0.391,0.088-0.715,0.035-0.97-0.158c-0.254-0.192-0.438-0.469-0.561-0.828
		c-0.236-0.688-0.408-1.446-0.514-2.267c-0.104-0.824-0.127-1.552-0.069-2.179l0.092-0.942l-1.754,1.39
		c-1.017,0.898-1.995,1.543-2.938,1.934c-0.942,0.386-1.775,0.583-2.494,0.583c-0.329-0.062-0.658-0.18-0.986-0.359
		c-0.329-0.18-0.623-0.404-0.877-0.676c-0.254-0.268-0.456-0.552-0.604-0.851c-0.181-0.421-0.232-0.99-0.158-1.705
		c0.074-0.719,0.254-1.508,0.539-2.358c0.285-0.855,0.645-1.692,1.078-2.517c0.435-0.82,0.935-1.548,1.504-2.175
		c0.986-1.496,2.053-2.411,3.188-2.74c1.136-0.329,2.258-0.163,3.367,0.495c0.78,0.329,1.263,0.478,1.46,0.447
		c0.192-0.025,0.364-0.372,0.517-1.03c0.119-0.478,0.237-0.964,0.36-1.459c0.118-0.496,0.312-1.162,0.583-2
		c0.745-2.271,1.398-4.055,1.951-5.34c0.553-1.289,1.057-2.411,1.504-3.367c0.329-0.688,0.604-1.118,0.832-1.28
		c0.224-0.167,0.456-0.231,0.693-0.201c0.329,0,0.631,0.118,0.898,0.359c0.271,0.236,0.479,0.565,0.632,0.985
		c0.118,0.269,0.171,0.501,0.152,0.697c-0.013,0.193-0.108,0.456-0.288,0.785c-0.391,0.719-0.847,1.671-1.373,2.851
		c-0.521,1.184-1.048,2.477-1.569,3.884s-1.009,2.797-1.46,4.174c-0.447,1.377-0.824,2.591-1.122,3.639
		c-0.18,0.658-0.338,1.495-0.469,2.513c-0.137,1.017-0.251,2.06-0.338,3.121c-0.092,1.061-0.146,2.004-0.158,2.828
		c-0.014,0.824,0.009,1.354,0.066,1.591c0.179,0.601,0.263,1.048,0.249,1.351c-0.017,0.298-0.097,0.5-0.249,0.605
		C123.712,78.437,123.476,78.501,123.146,78.532z M115.558,73.548c0.42-0.088,0.833-0.254,1.235-0.491
		c0.404-0.241,0.829-0.526,1.28-0.855c0.895-0.688,1.676-1.314,2.333-1.885s1.092-1.438,1.302-2.604
		c0.062-0.569,0.009-1.025-0.157-1.368c-0.162-0.346-0.426-0.666-0.785-0.964c-0.359-0.241-0.847-0.338-1.46-0.294
		s-1.25,0.369-1.907,0.965c-0.719,0.657-1.416,1.543-2.086,2.647c-0.676,1.109-1.176,2.474-1.504,4.086
		c-0.063,0.303,0.025,0.54,0.267,0.72S114.808,73.701,115.558,73.548z"/>
	<path fill="#41BEE2" d="M132.169,76.604c-1.171-0.482-1.925-1.149-2.271-1.999c-0.342-0.854-0.408-2.18-0.202-3.973
		c0.061-0.929,0.092-1.543,0.092-1.841s-0.167-0.601-0.496-0.899c-0.087-0.118-0.245-0.284-0.469-0.495
		c-0.227-0.206-0.323-0.386-0.293-0.534c-0.03-0.211-0.014-0.443,0.043-0.697c0.063-0.255,0.15-0.382,0.272-0.382
		c0.119,0,0.246-0.031,0.382-0.092c0.136-0.058,0.263-0.058,0.381,0c0.118,0,0.254,0.018,0.403,0.048
		c0.149,0.026,0.225,0.105,0.225,0.224c0.118,0.211,0.314,0.232,0.583,0.065c0.271-0.162,0.556-0.543,0.854-1.144
		c0.297-0.478,0.697-0.957,1.188-1.438c0.495-0.478,0.991-0.921,1.482-1.324c0.495-0.402,0.907-0.696,1.235-0.873
		c0.15-0.061,0.374-0.136,0.671-0.227c0.304-0.088,0.624-0.163,0.969-0.224c0.342-0.058,0.637-0.075,0.873-0.045
		c0.54,0.032,0.996,0.181,1.373,0.447c0.372,0.271,0.723,0.584,1.052,0.943c0.39,0.272,0.636,0.632,0.74,1.078
		c0.105,0.447,0.127,0.93,0.071,1.438c-0.063,0.508-0.198,0.973-0.408,1.39c-0.088,0.302-0.343,0.657-0.763,1.078
		c-0.417,0.422-0.899,0.824-1.435,1.21c-0.538,0.391-1.033,0.676-1.48,0.855c-0.392,0.087-0.896,0.166-1.504,0.224
		c-0.615,0.061-1.184,0.083-1.706,0.069c-0.525-0.017-0.877-0.069-1.057-0.157c-0.211-0.118-0.377,0.044-0.495,0.491
		c-0.118,0.451-0.211,1.096-0.268,1.934c-0.062,0.657-0.062,1.135,0,1.434c0.057,0.303,0.119,0.513,0.18,0.631
		c0.206,0.21,0.499,0.469,0.873,0.785c0.377,0.315,0.906,0.368,1.595,0.157c0.57-0.148,1.132-0.539,1.685-1.166
		c0.552-0.631,1.069-1.14,1.547-1.53c0.118-0.205,0.325-0.333,0.605-0.381c0.285-0.044,0.592-0.022,0.92,0.07
		c0.329,0.21,0.474,0.456,0.431,0.74c-0.049,0.285-0.202,0.711-0.474,1.276c-0.088,0.21-0.29,0.474-0.605,0.789
		c-0.315,0.311-0.657,0.627-1.034,0.942c-0.374,0.311-0.71,0.562-1.009,0.741c-0.899,0.478-1.736,0.723-2.513,0.74
		C133.634,76.998,132.883,76.871,132.169,76.604z M134.817,67.488c0.657-0.148,1.179-0.254,1.568-0.315
		c0.392-0.057,0.764-0.232,1.123-0.517c0.359-0.281,0.807-0.829,1.347-1.636c0.122-0.329,0.157-0.658,0.113-0.991
		c-0.044-0.328-0.128-0.552-0.246-0.67c-0.271-0.299-0.592-0.399-0.969-0.295c-0.372,0.105-0.723,0.276-1.052,0.519
		c-0.211,0.087-0.517,0.306-0.921,0.648c-0.402,0.346-0.803,0.736-1.188,1.17c-0.391,0.435-0.706,0.829-0.947,1.188
		c-0.236,0.359-0.299,0.569-0.176,0.627c-0.061,0.123,0.109,0.197,0.514,0.229C134.387,67.476,134.664,67.488,134.817,67.488z"/>
	<path fill="#41BEE2" d="M157.216,76.287c-0.088,0.031-0.236,0.014-0.447-0.043c-0.211-0.062-0.421-0.136-0.627-0.229
		c-0.21-0.088-0.346-0.162-0.408-0.224c-0.118-0.118-0.228-0.298-0.333-0.538c-0.104-0.237-0.114-0.588-0.021-1.053
		c0.088-0.465,0.386-1.07,0.895-1.819c0.148-0.299,0.329-0.75,0.539-1.347c0.21-0.601,0.43-1.236,0.653-1.907
		c0.224-0.675,0.434-1.28,0.627-1.819c0.192-0.539,0.337-0.911,0.425-1.122c0.062-0.509,0.04-0.877-0.065-1.101
		s-0.369-0.351-0.785-0.382c-0.303,0-0.53-0.03-0.696-0.088c-0.168-0.061-0.246-0.359-0.246-0.897
		c0.057-0.422,0.171-0.71,0.338-0.878c0.162-0.161,0.395-0.351,0.693-0.561c0.297-0.149,0.608-0.255,0.92-0.315
		c0.315-0.058,0.623-0.075,0.92-0.044c0.299,0.031,0.54,0.136,0.72,0.315c0.21,0.118,0.343,0.381,0.403,0.785
		c0.062,0.403,0.097,0.815,0.114,1.235c0.013,0.417,0.034,0.733,0.065,0.943c0.298-0.241,0.711-0.579,1.236-1.013
		c0.522-0.435,0.979-0.847,1.368-1.232c0.478-0.329,1.048-0.666,1.706-1.013c0.656-0.341,1.135-0.517,1.438-0.517
		c0.329,0,0.658,0.083,0.985,0.249c0.329,0.163,0.553,0.364,0.676,0.605c0.299,0.509,0.438,0.961,0.426,1.346
		c-0.018,0.391-0.189,0.794-0.519,1.214c-0.297,0.392-0.665,0.658-1.1,0.808s-0.71,0.224-0.828,0.224
		c-0.181,0-0.404-0.132-0.676-0.403c-0.267-0.268-0.417-0.496-0.447-0.675c0-0.089-0.188-0.005-0.562,0.249
		c-0.377,0.254-0.784,0.57-1.235,0.942c-0.447,0.373-0.824,0.711-1.123,1.009c-0.508,0.631-1.048,1.481-1.613,2.561
		c-0.57,1.078-1.244,2.38-2.021,3.906c-0.359,0.75-0.614,1.385-0.764,1.907C157.698,75.893,157.487,76.196,157.216,76.287z"/>
	<path fill="#41BEE2" d="M181.372,77.59c-0.302-0.298-0.601-0.71-0.897-1.236c-0.303-0.521-0.54-1.127-0.72-1.814
		c-0.062-0.242-0.083-0.57-0.065-0.991c0.013-0.417,0.004-0.719-0.026-0.899c-0.088,0.211-0.228,0.43-0.426,0.653
		c-0.193,0.224-0.381,0.412-0.562,0.562c-0.118,0.118-0.39,0.351-0.807,0.697c-0.42,0.342-0.837,0.618-1.258,0.829
		c-0.986,0.626-1.802,0.973-2.446,1.034c-0.645,0.057-1.249-0.272-1.819-0.991c-0.478-0.386-0.815-0.819-1.009-1.302
		c-0.196-0.478-0.202-1.136-0.021-1.973c0.057-1.048,0.211-2.074,0.447-3.078c0.241-1,0.731-2.341,1.482-4.016
		c0.631-1.228,1.108-2.131,1.438-2.719c0.329-0.583,0.538-0.934,0.626-1.052c0.452-0.148,0.824-0.145,1.123,0.021
		c0.298,0.162,0.478,0.456,0.54,0.878c0.179,0.297,0.157,0.807-0.066,1.525s-0.609,1.6-1.145,2.647
		c-0.42,1.018-0.803,2.034-1.148,3.052c-0.343,1.017-0.543,1.885-0.605,2.604c-0.061,0.719,0.119,1.152,0.54,1.302
		c0.271,0.148,0.74,0.105,1.416-0.136c0.671-0.237,1.434-0.838,2.289-1.793c0.85-0.961,1.683-2.412,2.489-4.358
		c0.241-0.597,0.421-1.127,0.539-1.592s0.193-0.981,0.224-1.548c-0.057-0.359-0.035-0.684,0.07-0.964
		c0.105-0.285,0.333-0.535,0.693-0.74c0.122-0.154,0.284-0.295,0.495-0.431c0.21-0.131,0.342-0.127,0.403,0.022l0.719-0.044
		c0.118-0.031,0.202,0.039,0.246,0.201c0.047,0.167,0.144,0.307,0.293,0.43c0.329,0.268,0.417,0.851,0.268,1.749
		c-0.149,0.899-0.565,2.153-1.254,3.771c-0.57,1.228-0.951,2.157-1.145,2.784c-0.197,0.627-0.311,1.241-0.338,1.842
		c0,0.539,0.105,1.048,0.313,1.525c0.21,0.478,0.539,0.912,0.99,1.302c0.329,0.211,0.513,0.447,0.561,0.72
		c0.045,0.268,0.054,0.583,0.022,0.942c-0.062,0.268-0.232,0.486-0.518,0.648c-0.284,0.167-0.604,0.25-0.964,0.25
		S181.671,77.8,181.372,77.59z"/>
	<path fill="#41BEE2" d="M191.562,77.813c-1.315,0-2.394-0.5-3.231-1.504c-0.837-1.004-1.241-2.254-1.209-3.748
		c0.057-1.079,0.275-2.236,0.648-3.481c0.372-1.24,0.877-2.438,1.503-3.591c0.627-1.152,1.315-2.161,2.065-3.029
		s1.526-1.482,2.337-1.842c0.298-0.148,0.618-0.267,0.964-0.359c0.343-0.088,0.693-0.131,1.053-0.131
		c0.329,0,0.675,0.052,1.035,0.153c0.359,0.104,0.657,0.219,0.898,0.337c0.509,0.211,0.894,0.465,1.166,0.764
		c0.268,0.302,0.509,0.763,0.719,1.395c0.088,0.564,0.132,0.973,0.132,1.209c0,0.241-0.075,0.601-0.224,1.079
		c-0.359,1.078-0.824,2.003-1.39,2.783c-0.57,0.776-1.333,1.434-2.288,1.974c-0.242,0.153-0.518,0.263-0.834,0.338
		c-0.314,0.074-0.635,0.113-0.964,0.113c-0.601,0-1.175-0.113-1.728-0.338c-0.557-0.224-0.995-0.561-1.324-1.008l-0.315-0.359
		l-0.136,0.359c-0.299,0.807-0.53,1.557-0.693,2.245c-0.166,0.688-0.249,1.314-0.249,1.885c0,0.359,0.039,0.701,0.113,1.03
		c0.075,0.328,0.185,0.614,0.338,0.854c0.118,0.18,0.32,0.308,0.604,0.382c0.285,0.074,0.592,0.109,0.921,0.109
		c0.207,0,0.426-0.004,0.649-0.021c0.223-0.014,0.442-0.066,0.652-0.157c0.509-0.181,0.921-0.374,1.232-0.584
		c0.315-0.206,0.636-0.434,0.969-0.671l0.175-0.092h-0.043c0.359-0.18,0.824-0.447,1.394-0.807c0.119,0,0.237-0.074,0.36-0.224
		c0.236-0.123,0.544-0.074,0.92,0.131c0.373,0.211,0.562,0.483,0.562,0.812c-0.03,0.149-0.167,0.382-0.408,0.692
		c-0.236,0.316-0.499,0.609-0.784,0.878c-0.285,0.271-0.518,0.42-0.696,0.451c-0.027,0.026-0.132,0.078-0.313,0.153
		c-0.18,0.075-0.303,0.145-0.359,0.202h0.044c-0.268,0.359-0.539,0.538-0.807,0.538h-0.359c-0.123,0.211-0.509,0.443-1.166,0.697
		C192.833,77.686,192.192,77.813,191.562,77.813z M193.583,67.936c0.539,0,1.009-0.158,1.416-0.469
		c0.403-0.315,0.754-0.667,1.052-1.057c0.601-0.807,0.951-1.592,1.057-2.354c0.105-0.768,0.009-1.299-0.293-1.597
		c-0.181-0.088-0.334-0.14-0.47-0.157c-0.136-0.014-0.399,0.039-0.785,0.157c-0.271,0.061-0.645,0.285-1.122,0.676
		c-0.482,0.385-0.951,0.819-1.416,1.302c-0.465,0.478-0.815,0.881-1.057,1.21l-0.583,0.942c0.241-0.087,0.474-0.141,0.697-0.158
		c0.224-0.013,0.351,0.009,0.381,0.071c0,0.267,0.053,0.513,0.158,0.74c0.105,0.224,0.237,0.395,0.403,0.513
		C193.188,67.879,193.372,67.936,193.583,67.936z"/>
</g>
<g>
	<g>
		<path fill="#41BEE2" d="M44.221,39.617c4.271-1.045,11.609-0.803,14.305,3.25c0.105,0.159,0.571-0.012,0.445-0.201
			c-2.811-4.225-10.405-4.418-14.828-3.336C43.847,39.403,43.926,39.689,44.221,39.617L44.221,39.617z"/>
	</g>
</g>
<g>
	<g>
		<path fill="#41BEE2" d="M43.901,39.813c-1.759,3.625,1.268,11.979,5.902,12.195c5.347,0.25,8.389-6.327,9.399-10.671
			c0.046-0.201-0.443-0.129-0.485,0.053c-0.92,3.954-4.034,11.271-9.292,10.201c-3.952-0.804-6.706-8.381-5.07-11.753
			C44.464,39.613,43.978,39.654,43.901,39.813L43.901,39.813z"/>
	</g>
</g>
<g>
	<g>
		<path fill="#41BEE2" d="M44.082,26.808c-0.096,0.63-0.192,1.259-0.288,1.889c-0.047,0.311-0.271,0.904-0.066,1.185
			c0.388,0.532,0.662,0.567,1.305,0.665c0.444,0.068,1.259-0.037,1.49-0.508c0.925-1.885,1.426-3.913-0.311-5.482
			c-0.458-0.414-1.481-0.123-1.797,0.354c-1.179,1.778-1.63,4.064-0.095,5.778c0.432,0.482,1.477,0.057,1.797-0.354
			c1.358-1.736,1.565-3.648,0.514-5.601c-0.318-0.592-1.589-0.284-1.868,0.229c-0.909,1.672-1.004,3.441-0.461,5.251
			c0.203,0.675,1.626,0.193,1.868-0.229c0.313-0.549,0.645-1.113,0.685-1.757c0.044-0.696-0.276-1.428-0.439-2.091
			c-0.183-0.742-1.595-0.101-1.868,0.229c-0.453,0.549-0.94,1.083-1.162,1.772c-0.194,0.606,0.081,1.387,0.217,1.971
			c0.158,0.68,1.649,0.183,1.868-0.229c0.507-0.957,1-1.76,1.19-2.847c0.142-0.818-1.473-0.301-1.745-0.055
			c-0.709,0.641-0.695,1.363-1.141,2.14c-0.466,0.812,1.479,0.624,1.804,0.059c0.348-0.605,0.361-1.376,0.893-1.856
			c-0.582-0.019-1.163-0.037-1.745-0.055c-0.17,0.98-0.602,1.694-1.059,2.556c0.623-0.077,1.245-0.153,1.868-0.229
			c-0.126-0.544-0.321-1.125-0.214-1.686c0.103-0.542,0.698-1.076,1.031-1.48c-0.623,0.077-1.245,0.153-1.868,0.229
			c0.13,0.528,0.292,1.049,0.404,1.581c0.128,0.616-0.23,1.18-0.521,1.691c0.623-0.077,1.245-0.153,1.868-0.229
			c-0.479-1.594-0.476-3.186,0.333-4.675c-0.623,0.077-1.245,0.153-1.868,0.229c0.958,1.781,0.868,3.422-0.386,5.024
			c0.599-0.118,1.198-0.236,1.797-0.354c-1.322-1.477-0.904-3.428,0.107-4.954c-0.599,0.118-1.198,0.236-1.797,0.354
			c1.484,1.342,1.098,3.031,0.298,4.658c0.497-0.169,0.993-0.338,1.49-0.508c-0.152-0.023-0.304-0.046-0.456-0.07
			c-0.272-0.042,0.108,0.184-0.188-0.224c-0.015-0.02,0.201-0.964,0.217-1.068c0.078-0.512,0.156-1.024,0.234-1.536
			C46.135,25.792,44.185,26.13,44.082,26.808L44.082,26.808z"/>
	</g>
</g>
<g>
	<g>
		<path fill="#41BEE2" d="M60.716,27.473c-0.99-0.363-2.126,0.234-2.643,1.073c-0.682,1.105-0.748,2.806-0.5,4.041
			c0.082,0.408,1.118,0.09,1.315,0.019c2.518-0.91,3.732-3.336,2.116-5.688c-0.322-0.469-1.561-0.067-1.849,0.301
			c-1.2,1.535-1.718,3.304-0.829,5.126c0.257,0.527,1.74,0.013,1.923-0.413c0.516-1.2,0.977-2.224,0.893-3.556
			c-0.036-0.578-1.744,0.113-1.923,0.413c-0.746,1.249-1.333,2.087-0.893,3.556c0.166,0.552,1.763-0.023,1.923-0.413
			c0.54-1.32,0.654-2.544,0.594-3.961c-0.022-0.532-1.67,0.072-1.849,0.301c-0.458,0.588-1.486,1.904-1.212,2.744
			c0.186,0.569,1.603-0.063,1.849-0.301c0.091-0.088,0.105-0.175,0.127-0.292c0.103-0.557-1.817-0.219-1.914,0.309
			c-0.043,0.114-0.036,0.137,0.022,0.067c0.616-0.101,1.232-0.201,1.849-0.301c-0.215-0.66,0.71-1.88,1.046-2.311
			c-0.616,0.101-1.232,0.201-1.849,0.301c0.057,1.351-0.064,2.499-0.577,3.752c0.641-0.138,1.282-0.275,1.923-0.413
			c-0.417-1.391,0.174-2.174,0.875-3.347c-0.641,0.138-1.282,0.275-1.923,0.413c0.079,1.257-0.392,2.222-0.875,3.347
			c0.641-0.138,1.282-0.275,1.923-0.413c-0.809-1.657-0.449-3.271,0.663-4.693c-0.616,0.101-1.232,0.201-1.849,0.301
			c1.039,1.511,1.154,3.879-0.883,4.616c0.438,0.006,0.877,0.012,1.315,0.019c-0.151-0.754-0.137-1.495-0.022-2.254
			c0.051-0.335,0.143-0.661,0.246-0.983c0.048-0.141,0.104-0.279,0.167-0.414c0.357-0.819,0.328,0.259-0.75-0.135
			C59.621,28.457,61.374,27.714,60.716,27.473L60.716,27.473z"/>
	</g>
</g>
<g>
	<g>
		<path fill="#41BEE2" d="M44.304,21.153c-0.839-4.15-0.422-8.532-2.047-12.507c-0.321-0.787-1.549-0.434-1.888,0.152
			c-2.547,4.402-6.679,7.484-9.571,11.626c-0.273,0.391-0.186,0.722,0.248,0.924c2.804,1.309,5.454,0.502,8.314-0.274
			c-0.385-0.192-0.769-0.385-1.153-0.578c-0.426,1.898,0.071,3.171,0.722,4.955c0.226,0.618,1.188,0.522,1.604,0.175
			c1.989-1.658,3.332-3.548,2.232-6.143c-0.362-0.854-2.277-0.298-1.932,0.518c0.861,2.032,0.067,3.387-1.578,4.758
			c0.535,0.058,1.07,0.117,1.604,0.175c-0.584-1.601-1.09-2.842-0.698-4.589c0.136-0.604-0.793-0.675-1.153-0.578
			c-2.354,0.639-4.423,1.421-6.846,0.291c0.083,0.308,0.165,0.616,0.248,0.924c2.974-4.259,7.181-7.441,9.802-11.971
			c-0.629,0.051-1.259,0.102-1.888,0.152c1.625,3.975,1.208,8.356,2.047,12.507C42.552,22.557,44.487,22.058,44.304,21.153
			L44.304,21.153z"/>
	</g>
</g>
<g>
	<g>
		<path fill="#41BEE2" d="M60.891,23.111c0.86-7.23,5.251-14.522,8.853-20.729c-0.625,0.068-1.25,0.136-1.874,0.205
			c0.345,3.061,0.024,6.231-0.302,9.281c-0.183,1.708-0.426,7.655-2.308,8.529c-1.212,0.563-0.112,1.345,0.798,0.923
			c2.338-1.085,2.67-4.661,3.062-6.859c0.71-3.988,1.138-8.345,0.682-12.391c-0.086-0.768-1.647-0.187-1.874,0.205
			c-3.64,6.272-8.105,13.711-8.978,21.045C58.847,24.179,60.803,23.846,60.891,23.111L60.891,23.111z"/>
	</g>
</g>
<g>
	<g>
		<path fill="#41BEE2" d="M60.299,23.111c-0.007,0-0.014,0-0.021,0.001c-0.108,0.003-0.402,0.173-0.216,0.286
			c1.413,0.854,3.272,1.071,4.77,1.794c0.143,0.069,0.382,0.013,0.432-0.153c0.724-2.401,1.449-4.801,2.172-7.202
			c0.061-0.203-0.43-0.14-0.486,0.048c-0.724,2.401-1.449,4.801-2.172,7.202c0.144-0.051,0.288-0.102,0.432-0.153
			c-1.498-0.724-3.359-0.942-4.77-1.795c-0.072,0.095-0.144,0.191-0.215,0.286c0.007,0,0.014,0,0.021,0
			C60.505,23.417,60.63,23.101,60.299,23.111L60.299,23.111z"/>
	</g>
</g>
<g>
	<g>
		<path fill="#41BEE2" d="M45.511,43.33c-0.3,2.906,0.893,5.394,3.298,7.04c0.122,0.084,0.44-0.02,0.433-0.185
			c-0.122-2.63-1.51-4.523-3.374-6.279c-0.12-0.112-0.471-0.022-0.465,0.161c0.089,2.688,1.34,5.081,3.754,6.355
			c0.112,0.06,0.41,0.004,0.433-0.148c0.026-0.174,0.336-1.163,0.001-1.212c0.392,0.057,0.705,1.549,0.866,1.87
			c0.085,0.171,0.379,0.05,0.467-0.056c0.683-0.819,1.548-1.437,2.399-2.066c0.266-0.197-0.145-0.259-0.303-0.154
			c-0.733,0.486-1.459,0.877-2.063,1.52c-0.208,0.221,0.276,0.181,0.39,0.088c1.763-1.425,4.876-3.96,2.918-6.4
			c-0.856-1.067-2.417-1.593-3.644-2.045c-0.765-0.281-1.551-0.504-2.334-0.728c-0.561-0.16,1.001-0.164,1.084-0.178
			c0.665-0.106,1.329-0.189,1.997-0.259c0.835-0.087,1.667-0.065,2.496,0.066c-0.364-0.05,2.821,0.495,0.585,0.155
			c-1.256-0.19-2.513-0.381-3.77-0.572c-0.426-0.234-0.791-0.19-1.092,0.13c0.587,0.07,1.19,0.054,1.781,0.055
			c1.459,0.002,3.009-0.166,4.26,0.769c2.352,1.758,0.199,5.235-1.156,6.771c-0.258,0.278-0.53,0.541-0.815,0.79
			c-1.757,1.615,0.379-0.036,0.645-0.221c0.367-0.256,1.58-1.485,0.864-0.165c-0.631,1.164-2.029,1.64-3.278,1.753
			c-0.242,0.021-0.396,0.31-0.063,0.279c2.097-0.188,3.532-1.148,4.311-3.142c0.069-0.176-0.339-0.087-0.393-0.049
			c-1.119,0.784-2.288,1.453-3.271,2.41c-0.206,0.199,0.238,0.189,0.346,0.121c2.36-1.489,4.924-4.446,4.067-7.424
			c-0.896-3.11-5.376-2.026-7.708-2.304c-0.146-0.018-0.503,0.238-0.239,0.278c2.221,0.336,4.442,0.674,6.664,1.01
			c0.099,0.015,0.565-0.137,0.338-0.256c-2.635-1.384-5.592-0.584-8.382-0.191c-0.113,0.016-0.436,0.206-0.178,0.276
			c2.175,0.594,7.215,1.559,7.046,4.644c-0.04,0.721-0.527,1.372-0.934,1.932c-0.023,0.032-2.646,2.706-1.308,1.762
			c0.765-0.54,0.533-0.679-0.106-0.171c-0.583,0.464-1.13,0.926-1.607,1.498c0.156-0.019,0.312-0.037,0.467-0.056
			c-0.363-0.726-0.327-1.906-1.232-2.039c-0.111-0.017-0.366,0.016-0.388,0.164c-0.021,0.142,0,1.138-0.303,0.978
			c-0.697-0.368-1.211-0.969-1.697-1.564c-1.003-1.229-1.382-2.858-1.433-4.403c-0.155,0.054-0.311,0.107-0.465,0.161
			c1.828,1.722,3.218,3.629,3.337,6.215c0.145-0.062,0.289-0.123,0.433-0.185c-2.334-1.597-3.489-4.037-3.198-6.856
			C46.016,43.069,45.528,43.159,45.511,43.33L45.511,43.33z"/>
	</g>
</g>
<g>
	<g>
		<path fill="#41BEE2" d="M45.209,19.923c2.044-0.972,5.859,0.306,7.973,0.698c2.189,0.407,4.362,0.899,6.561,1.255
			c0.443,0.072,2.089-0.644,1.594-0.725c-5.055-0.818-12.246-3.811-17.23-1.441C42.957,20.257,44.776,20.13,45.209,19.923
			L45.209,19.923z"/>
	</g>
</g>
<g>
	<g>
		<path fill="#41BEE2" d="M39.199,23.738c-5.456,12.904,1.351,28.317,6.811,40.094c0.228,0.49,0.963,0.383,1.364,0.201
			c16.133-7.284,16.735-26.28,18.992-41.527c0.125-0.847-1.833-0.525-1.941,0.208c-2.135,14.422-2.466,33.454-17.848,40.399
			c0.455,0.067,0.91,0.134,1.364,0.201c-5.322-11.48-12.247-26.884-6.926-39.47C41.41,22.913,39.475,23.086,39.199,23.738
			L39.199,23.738z"/>
	</g>
</g>
<g>
	<g>
		<path fill="#41BEE2" d="M49.136,40.809c-0.529-0.083-0.909-0.14-1.275-0.538c-0.126,0.066-0.252,0.133-0.379,0.2
			c2.212,0.337,4.421,0.679,6.562,1.352c0.13-0.069,0.261-0.138,0.392-0.207c-1.475-0.45-2.054,0.354-3.471,0.569
			c-0.21,0.032-0.417,0.269-0.079,0.217c1.079-0.164,1.991-0.936,3.158-0.579c0.124,0.038,0.561-0.153,0.392-0.207
			c-2.168-0.682-4.405-1.028-6.647-1.369c-0.066-0.01-0.492,0.078-0.379,0.2c0.398,0.434,0.859,0.499,1.421,0.588
			C48.954,41.054,49.394,40.85,49.136,40.809L49.136,40.809z"/>
	</g>
</g>
<g>
	<g>
		<path fill="#41BEE2" d="M44.571,53.266c3.362,5.008,8.539,3.403,12.164-0.417c0.786-0.828-1.105-0.802-1.553-0.33
			c-1.292,1.361-2.847,2.887-4.851,2.929c-1.777,0.037-3.085-1.628-3.968-2.943C45.996,51.956,44.122,52.597,44.571,53.266
			L44.571,53.266z"/>
	</g>
</g>
<g>
	<g>
		<path fill="#41BEE2" d="M44.616,39.341c-0.227,0.366-0.264,0.316-0.308,0.605c-0.028,0.183,0.403,0.027,0.462-0.041
			c0.081-0.094,0.163-0.188,0.244-0.282c-0.155,0.023-0.309,0.047-0.464,0.07c0.105,0.585-0.285,1.194-0.56,1.679
			c-0.079,0.139,0.384,0.022,0.43-0.011c0.551-0.405,1.545-1.652,0.604-0.053c0.27-0.056,0.539-0.11,0.809-0.166
			c0.417-0.356,0.831-0.718,1.24-1.083c0.08-0.071-0.617,1.303-0.412,0.865c-0.576,1.232-1.439,2.364-2.218,3.474
			c-0.12,0.171,0.365,0.079,0.444-0.01c1.208-1.36,2.325-2.779,3.747-3.931c1.025-0.831-1.358,2.88-0.795,1.991
			c-0.491,0.777-1.066,1.5-1.644,2.213c-0.132,0.163,0.344,0.074,0.412,0.021c0.587-0.463,1.131-0.945,1.671-1.46
			c0.276-0.263,1.64-1.676,1.591-1.451c-0.412,1.905-2.064,3.482-3.109,5.07c-0.115,0.175,0.367,0.084,0.444-0.01
			c1.314-1.597,2.788-3.009,4.326-4.387c-0.789,0.706-1.22,2.083-1.816,2.978c-0.625,0.939-1.307,1.845-1.961,2.765
			c-0.123,0.173,0.366,0.072,0.444-0.01c1.654-1.733,3.208-3.558,4.822-5.327c0.579-0.574,0.63-0.658,0.154-0.252
			c-0.318,0.722-0.708,1.412-1.088,2.103c-0.817,1.485-1.755,2.909-2.667,4.337c-0.112,0.175,0.368,0.089,0.444-0.01
			c1.677-2.172,3.369-4.32,5.26-6.311c-0.96,1.01-1.54,2.595-2.272,3.793c-0.75,1.227-1.573,2.407-2.397,3.584
			c-0.118,0.168,0.365,0.085,0.444-0.01c1.076-1.289,2.078-2.633,3.099-3.965c0.49-0.639,1.006-1.254,1.533-1.863
			c-0.42,0.484-0.975,1.167-1.397,1.837c-0.393,0.625-0.818,1.226-1.251,1.823c-0.153,0.197-0.307,0.395-0.46,0.592
			c-0.661,0.501-0.691,0.686-0.089,0.554c0.98-1.191,1.857-2.426,2.598-3.778c0.062-0.112-0.395-0.064-0.462,0.041
			c-1.11,1.732-2.329,3.251-3.971,4.518c0.013-0.01,0.447-1.988,0.545-2.237c0.425-1.082,1.121-2.02,1.867-2.896
			c0.122-0.144-0.356-0.094-0.444,0.01c-1.409,1.655-2.265,3.462-2.658,5.607c-0.033,0.179,0.374,0.026,0.43-0.011
			c1.329-0.878,2.38-1.896,3.383-3.129c0.311-0.401,0.606-0.814,0.886-1.238c-0.533,0.35-0.949,0.801-1.25,1.354
			c-0.557,0.818-1.209,1.577-1.837,2.34c-0.125,0.152,0.359,0.082,0.444-0.01c1.666-1.802,2.912-3.862,4.194-5.941
			c0.115-0.187-0.369-0.071-0.444,0.01c-0.916,0.983-1.747,2.021-2.563,3.087c-0.338,0.446-0.676,0.892-1.016,1.336
			c-0.172,0.223-0.344,0.445-0.516,0.667c-0.713,0.614-0.749,0.802-0.108,0.562c1.615-2.308,3.065-4.708,4.301-7.239
			c0.072-0.147-0.404-0.018-0.462,0.041c-1.933,1.943-3.644,4.064-5.322,6.227c0.479-0.004,0.771-0.278,0.872-0.822
			c0.457-0.721,0.899-1.45,1.337-2.183c0.681-1.14,1.285-2.316,1.82-3.531c0.067-0.153-0.405-0.019-0.462,0.041
			c-1.654,1.733-3.208,3.558-4.822,5.328c-0.641,0.571-0.63,0.656,0.033,0.252c0.487-0.684,0.977-1.365,1.456-2.055
			c0.779-1.121,1.436-2.294,1.998-3.539c0.066-0.146-0.38-0.033-0.43,0.011c-0.778,0.69-1.565,1.376-2.313,2.101
			c-0.375,0.355-0.741,0.719-1.1,1.09c-0.178,0.189-0.355,0.379-0.533,0.569c-0.675,0.439-0.744,0.648-0.207,0.625
			c1.157-1.759,2.463-3.128,2.92-5.247c0.04-0.187-0.406-0.012-0.462,0.041c-0.566,0.539-1.12,1.088-1.67,1.643
			c-0.503,0.517-1.027,1.011-1.572,1.483c0.343-0.001,0.568-0.195,0.675-0.586c0.925-1.203,1.67-2.521,2.33-3.883
			c0.069-0.144-0.35-0.038-0.385-0.019c-1.464,0.793-2.556,1.93-3.643,3.173c-0.296,0.347-0.593,0.692-0.891,1.038
			c0.449-0.522,0.995-0.943,1.433-1.613c0.594-0.909,1.058-1.875,1.441-2.89c0.063-0.169-0.409-0.009-0.462,0.041
			c-1.02,0.96-2.096,1.854-3.115,2.814c-0.128,0.121,0.325,0.102,0.412,0.021c0.694-0.65,1.132-1.383,1.569-2.222
			c0.076-0.146-0.385-0.023-0.43,0.01c-0.365,0.27-0.73,0.539-1.096,0.808c-0.148,0.405-0.134,0.422,0.042,0.053
			c0.23-0.432,0.451-0.877,0.363-1.369c-0.028-0.155-0.409,0.007-0.464,0.07c0.164-0.101,0.327-0.203,0.49-0.304
			C45.166,39.159,44.687,39.225,44.616,39.341L44.616,39.341z"/>
	</g>
</g>
<g>
	<g>
		<path fill="#41BEE2" d="M44.721,41.421c2.28-1.979,5.742-0.803,8.396-0.374c0.154,0.025,0.57-0.219,0.295-0.264
			c-2.928-0.474-6.562-1.628-9.079,0.558C44.121,41.524,44.602,41.524,44.721,41.421L44.721,41.421z"/>
	</g>
</g>
<g>
	<g>
		<path fill="#41BEE2" d="M45.726,40.661c3.028-1.98,6.141-0.452,9.14,0.333c0.127,0.033,0.559-0.165,0.391-0.209
			c-3.43-0.897-6.673-2.284-9.909-0.167C45.134,40.756,45.623,40.729,45.726,40.661L45.726,40.661z"/>
	</g>
</g>
<g>
	<g>
		<path fill="#41BEE2" d="M52.155,41.497c-1.957-0.708-4.423-0.626-6.415-0.115c-0.622,0.159-1.547,0.482-1.815,1.14
			c-0.401,0.98,0.685,1.856,1.347,2.386c0.133,0.106,0.58-0.083,0.448-0.188c-0.596-0.478-1.483-1.157-1.391-2.023
			c0.084-0.785,1.275-1.036,1.882-1.174c1.714-0.387,3.891-0.396,5.559,0.207C51.915,41.782,52.354,41.569,52.155,41.497
			L52.155,41.497z"/>
	</g>
</g>
<g>
	<g>
		<path fill="#41BEE2" d="M44.954,40.906c-0.26,2.274,0.755,7.851,3.719,8.064c1.372,0.099,2.318-1.376,2.434-2.55
			c0.18-1.835-1.332-4.035-2.843-4.932c-0.121-0.071-0.355-0.025-0.417,0.111c-1.331,2.962-0.048,7.703,3.272,8.728
			c0.191,0.06,0.571-0.219,0.284-0.307c-2.337-0.722-3.299-3.218-3.544-5.451c-0.059-0.534-0.018-1.058,0.043-1.587
			c0.1-0.869,0-1.335,0.774-0.645c0.854,0.761,1.419,1.851,1.772,2.919c0.467,1.413-0.427,4.295-2.433,3.113
			c-0.781-0.461-1.253-1.522-1.596-2.301c-0.681-1.55-1.173-3.511-0.979-5.208C45.468,40.629,44.977,40.704,44.954,40.906
			L44.954,40.906z"/>
	</g>
</g>
<g>
	<g>
		<path fill="#41BEE2" d="M46.652,47.482c0.29,1.026,0.841,2.25,1.85,2.758c0.947,0.477,1.81,0.102,2.465-0.66
			c0.201-0.233-0.259-0.322-0.406-0.15c-1.559,1.813-3.025-0.657-3.425-2.076C47.07,47.123,46.588,47.253,46.652,47.482
			L46.652,47.482z"/>
	</g>
</g>
<g>
	<g>
		<path fill="#41BEE2" d="M46.157,46.812c1.175,3.722,5.369,4.626,7.201,0.925c0.064-0.13-0.409-0.082-0.481,0.064
			c-0.788,1.593-2.179,2.648-3.966,1.827c-1.171-0.538-1.899-1.771-2.27-2.945C46.59,46.523,46.109,46.66,46.157,46.812
			L46.157,46.812z"/>
	</g>
</g>
<g>
	<g>
		<path fill="#41BEE2" d="M47.572,49.433c1.277,1.318,2.989,1.641,4.287,0.187c0.101-0.113-0.36-0.051-0.438,0.035
			c-1.162,1.303-2.446,0.593-3.394-0.386C47.94,49.179,47.497,49.354,47.572,49.433L47.572,49.433z"/>
	</g>
</g>
<g>
	<g>
		<path fill="#41BEE2" d="M47.824,49.79c0.968,1.585,2.645,1.955,3.93,0.499c0.202-0.229-0.261-0.3-0.403-0.139
			c-1.096,1.241-2.323,0.674-3.084-0.571C48.154,49.396,47.693,49.576,47.824,49.79L47.824,49.79z"/>
	</g>
</g>
<g>
	<g>
		<path fill="#41BEE2" d="M48.065,50.113c3.423,2.541,6.39-2.145,6.906-5.123c0.03-0.171-0.455-0.085-0.481,0.066
			c-0.444,2.564-2.889,7.165-5.975,4.873C48.386,49.834,47.947,50.024,48.065,50.113L48.065,50.113z"/>
	</g>
</g>
<g>
	<g>
		<path fill="#41BEE2" d="M52.866,47.056c0.864-1.658,1.931-3.215,2.551-4.99c0.042-0.12-0.431-0.06-0.479,0.076
			c-0.62,1.775-1.687,3.332-2.551,4.99C52.337,47.228,52.797,47.188,52.866,47.056L52.866,47.056z"/>
	</g>
</g>
<g>
	<g>
		<path fill="#41BEE2" d="M53.492,41.431c0.76-0.087,1.607-0.065,2.183,0.51c0.555,0.554,0.549,1.435,0.451,2.154
			c-0.034,0.25,0.459,0.188,0.49-0.035c0.116-0.849,0.065-1.771-0.574-2.409c-0.645-0.644-1.662-0.677-2.509-0.581
			C53.262,41.101,53.163,41.468,53.492,41.431L53.492,41.431z"/>
	</g>
</g>
<g>
	<g>
		<path fill="#41BEE2" d="M45.872,39.941c0.03,0.112,0.061,0.224,0.091,0.335c0.333-0.043,0.666-0.093,0.997-0.149
			c0.253-0.041,0.388-0.348,0.048-0.336c-1.487,0.055-0.945,1.353-0.366,2.226c0.786,1.183,2.827,2.598,2.219,4.215
			c-0.096,0.255,0.385,0.233,0.459,0.047c0.065-0.229,0.17-0.437,0.317-0.622c-0.157,0.014-0.314,0.027-0.471,0.041
			c0.541,1.098-0.109,2.21,0.016,3.366c0.021,0.198,0.367,0.075,0.442,0c0.55-0.551,0.811-1.135,0.989-1.887
			c0.054-0.231-0.366-0.127-0.444-0.044c-1.346,1.417-1.64-1.011-2.196-1.959c-0.542-0.924-1.091-1.437-2.147-1.612
			c-0.11-0.018-0.378,0.076-0.328,0.232c0.035,0.105,0.069,0.211,0.103,0.316c0.065,0.201,0.459,0.097,0.486-0.085
			c0.112-0.767,0.199-1.511,0.198-2.285c0-0.243-0.478-0.164-0.488,0.041c-0.04,0.797-0.042,1.518,0.105,2.303
			c0.031,0.166,0.314,0.103,0.4,0.038c0.451-0.338,0.634-0.629,0.907-1.148c-0.157,0.014-0.314,0.027-0.471,0.041
			c0.168,0.442,0.343,0.695,0.693,1.033c0.149,0.146,0.607-0.05,0.443-0.207c-0.315-0.245-0.533-0.563-0.653-0.955
			c-0.072-0.189-0.396-0.102-0.471,0.041c-0.16,0.398-0.415,0.729-0.764,0.99c0.133,0.013,0.267,0.025,0.4,0.038
			c-0.139-0.74-0.138-1.466-0.1-2.215c-0.163,0.014-0.326,0.027-0.488,0.041c0.001,0.775-0.085,1.52-0.198,2.285
			c0.162-0.028,0.324-0.057,0.486-0.085c-0.035-0.105-0.069-0.211-0.103-0.316c-0.109,0.077-0.218,0.154-0.328,0.232
			c1.472,0.244,1.928,1.515,2.409,2.681c0.127,0.309,0.46,1.32,0.826,1.505c0.704,0.356,1.231-0.347,1.681-0.821
			c-0.148-0.015-0.296-0.029-0.444-0.044c-0.093,0.683-0.394,1.255-0.901,1.717c0.147,0,0.294,0,0.442,0
			c-0.132-1.221,0.552-2.214-0.016-3.366c-0.092-0.187-0.378-0.102-0.471,0.041c-0.147,0.187-0.253,0.394-0.317,0.622
			c0.153,0.016,0.306,0.031,0.459,0.047c0.95-2.527-3.917-4.254-2.521-6.509c0.084-0.136-0.111-0.195-0.206-0.191
			c-0.252,0.012-0.504,0.024-0.756,0.037c-0.155,0.007-0.415,0.237-0.165,0.324c0.117,0.041,0.462,0.217,0.686,0.209
			c0.056-0.093,0.112-0.187,0.168-0.281c-0.35,0.05-0.699,0.098-1.049,0.142c-0.258,0.034-0.384,0.349-0.048,0.336
			c0.267-0.01,0.285-0.009,0.526-0.093C46.242,40.154,46.165,39.839,45.872,39.941L45.872,39.941z"/>
	</g>
</g>
<g>
	<g>
		<path fill="#41BEE2" d="M54.929,43.124c0.756,0.484-0.195,3.079-0.472,3.663c-0.114,0.241,0.372,0.222,0.459,0.043
			c0.416-0.852,0.779-1.694,1.393-2.432c-0.148-0.014-0.296-0.028-0.444-0.042c-0.195,1.55-0.921,2.806-1.926,3.977
			c-0.775,0.902-1.905,2.302-3.011,2.724c0.101,0.065,0.203,0.13,0.304,0.195c1.291-1.494,2.125-2.66,2.164-4.697
			c0.005-0.241-0.484-0.16-0.487,0.043c-0.037,1.951-0.844,3.101-2.077,4.527c-0.181,0.21,0.174,0.245,0.304,0.195
			c1.212-0.463,1.94-1.643,2.859-2.502c1.26-1.178,2.143-2.796,2.357-4.505c0.028-0.225-0.359-0.143-0.444-0.042
			c-0.632,0.76-1.021,1.632-1.452,2.516c0.153,0.014,0.306,0.029,0.459,0.043c0.369-0.779,1.354-3.354,0.388-3.974
			C55.137,42.749,54.706,42.981,54.929,43.124L54.929,43.124z"/>
	</g>
</g>
<g>
	<g>
		<path fill="#41BEE2" d="M56.287,41.103c-0.021-0.028-0.041-0.056-0.062-0.083c-0.084-0.113-0.55,0.045-0.451,0.178
			c0.021,0.028,0.041,0.056,0.062,0.083C55.92,41.394,56.386,41.235,56.287,41.103L56.287,41.103z"/>
	</g>
</g>
<g>
	<g>
		<path fill="#41BEE2" d="M56.076,40.192c-0.018-0.039-0.035-0.078-0.052-0.118c-0.091,0.058-0.182,0.115-0.272,0.172
			c-0.201,0.021-0.006,0.122,0.092,0.235c0.083,0.096,0.163,0.194,0.264,0.271c0.552,0.418,1.139,0.786,1.635,1.274
			c0.13,0.127,0.587-0.058,0.447-0.195c-0.529-0.52-1.225-0.848-1.742-1.368c-0.177-0.178-0.345-0.536-0.636-0.506
			c-0.076,0.008-0.273,0.066-0.272,0.171c0,0.075,0.022,0.123,0.053,0.193C55.672,40.502,56.147,40.355,56.076,40.192L56.076,40.192
			z"/>
	</g>
</g>
</svg>
