<?xml version="1.0" encoding="utf-8"?>
<!-- Generator: Adobe Illustrator 15.0.0, SVG Export Plug-In . SVG Version: 6.00 Build 0)  -->
<!DOCTYPE svg PUBLIC "-//W3C//DTD SVG 1.1//EN" "http://www.w3.org/Graphics/SVG/1.1/DTD/svg11.dtd">
<svg version="1.1" id="Calque_1" xmlns="http://www.w3.org/2000/svg" xmlns:xlink="http://www.w3.org/1999/xlink" x="0px" y="0px"
	 width="351px" height="100px" viewBox="0 0 351 100" enable-background="new 0 0 351 100" xml:space="preserve">
<g>
	<path fill="#41BEE2" d="M7.226,99.505c-0.792-0.317-1.599-0.662-2.417-1.033c-0.821-0.368-1.585-0.91-2.299-1.622
		c-0.712-0.717-1.336-1.708-1.862-2.974c-0.53-1.533-0.887-3.039-1.07-4.518c-0.186-1.479-0.252-3.198-0.2-5.157
		c0-2.748,0.2-5.141,0.596-7.173c0.395-2.033,1.017-4.107,1.862-6.226c0.106-0.158,0.304-0.619,0.594-1.39
		c0.291-0.763,0.635-1.595,1.032-2.493s0.699-1.587,0.912-2.063c0.422-0.898,1.07-2.103,1.941-3.604
		c0.873-1.51,1.81-2.973,2.814-4.405c1.533-2.269,2.803-4.066,3.808-5.389c1.002-1.32,1.953-2.431,2.853-3.33
		c0.898-0.898,1.917-1.757,3.053-2.578c1.136-0.819,2.604-1.835,4.4-3.051c1.163-0.846,2.445-1.295,3.846-1.349
		c1.399-0.052,2.708,0.251,3.923,0.912c1.216,0.662,2.114,1.626,2.696,2.894c0.581,1.111,0.873,2.447,0.873,4.005
		c0,1.56-0.238,3.197-0.714,4.913c-0.476,1.719-1.138,3.345-1.982,4.877c-0.846,1.533-1.823,2.804-2.935,3.806
		c-0.687,0.635-1.307,0.871-1.862,0.717c-0.556-0.163-1.204-0.581-1.943-1.271c-0.475-0.897-0.726-1.428-0.753-1.587
		c-0.027-0.154,0.066-0.263,0.279-0.317c0.315-0.368,0.74-1.003,1.268-1.9c0.528-0.898,1.057-1.862,1.585-2.893
		c0.528-1.033,0.898-1.865,1.111-2.501c0.422-2.22,0.712-3.792,0.871-4.717c0.159-0.923,0-1.624-0.476-2.1
		c-0.211-0.211-0.515-0.291-0.912-0.238c-0.395,0.052-1.043,0.317-1.942,0.792c-1.217,0.531-2.803,1.706-4.758,3.529
		c-1.955,1.824-3.753,3.846-5.391,6.065c-2.114,2.803-3.885,5.288-5.312,7.456c-1.429,2.168-2.513,4.386-3.252,6.658
		c-0.106,0.209-0.395,0.898-0.871,2.06c0.052,0.213-0.027,0.729-0.238,1.549c-0.213,0.82-0.449,1.518-0.714,2.099
		c-0.583,2.431-0.925,4.955-1.03,7.572c-0.106,2.616,0.039,4.932,0.436,6.938c0.396,2.009,0.991,3.41,1.785,4.204
		c0.685,0.472,1.624,0.635,2.814,0.472c1.188-0.154,2.549-0.526,4.082-1.106c1.533-0.581,3.093-1.216,4.679-1.905
		c1.268-0.526,2.429-1.107,3.488-1.742c1.057-0.635,1.85-1.192,2.379-1.664c0.422-0.317,0.964-0.65,1.626-0.991
		c0.66-0.345,1.227-0.519,1.703-0.519c0.739-0.264,1.162-0.368,1.27-0.317c0.104,0.054,0.157,0.294,0.157,0.716
		c0,0.739-0.409,1.561-1.228,2.458c-0.82,0.898-1.864,1.719-3.132,2.455c-0.424,0.426-0.979,0.875-1.667,1.351
		c-0.687,0.477-1.399,0.848-2.139,1.111c-1.111,0.844-2.486,1.664-4.123,2.454c-1.64,0.794-3.291,1.401-4.956,1.827
		C10.12,99.687,8.6,99.769,7.226,99.505z"/>
	<path fill="#41BEE2" d="M38.464,90.783c-0.372,0.054-0.755,0.038-1.15-0.039c-0.397-0.077-0.782-0.252-1.15-0.519
		c-0.424-0.418-0.714-0.751-0.873-0.991c-0.159-0.232-0.197-0.619-0.118-1.146c0.08-0.527,0.25-1.348,0.515-2.459
		c0.263-0.848,0.581-2.024,0.95-3.526c0.37-1.51,0.767-3,1.19-4.483c0.159-0.844,0.383-1.715,0.674-2.617
		c0.29-0.897,0.594-1.727,0.912-2.493s0.556-1.362,0.714-1.788c0.422-1.479,0.832-2.771,1.231-3.883
		c0.395-1.111,0.883-2.389,1.463-3.845c0.581-1.455,1.293-3.398,2.141-5.83c1.165-3.167,2.048-5.588,2.655-7.253
		c0.608-1.665,1.057-2.88,1.352-3.646c0.286-0.765,0.487-1.361,0.592-1.783c0-0.424,0.12-0.741,0.356-0.952s0.542-0.317,0.91-0.317
		c0.743,0,1.339,0.356,1.789,1.07s0.724,1.56,0.829,2.538c0.108,0.978-0.054,1.889-0.472,2.735
		c-0.848,1.903-1.746,4.164-2.695,6.781c-0.952,2.617-1.881,5.18-2.779,7.688c-0.898,2.509-1.742,4.638-2.536,6.38
		c0,0.217-0.082,0.584-0.236,1.115c-0.163,0.526-0.349,1.002-0.558,1.424c-0.209,0.426-0.503,1.007-0.871,1.742
		c0,0.217-0.081,0.612-0.236,1.192c-0.163,0.581-0.372,1.293-0.635,2.142c-0.213,0.631-0.464,1.451-0.755,2.458
		c-0.29,1.003-0.488,1.851-0.592,2.535c0.263-0.476,0.817-1.188,1.665-2.141c0.844-0.952,1.634-1.769,2.377-2.458
		c0.844-0.739,1.796-1.561,2.857-2.458c1.053-0.898,1.901-1.557,2.532-1.982c0.635-0.422,1.456-0.976,2.462-1.665
		c0-0.209,0.093-0.329,0.278-0.355c0.182-0.023,0.379-0.039,0.592-0.039c0.213,0,0.329-0.027,0.356-0.077
		c0.027-0.055,0.042-0.187,0.042-0.399c0-0.263,0.302-0.499,0.91-0.716c0.608-0.209,1.32-0.38,2.141-0.511
		c0.821-0.132,1.494-0.201,2.021-0.201c0.635,0,1.138,0.131,1.506,0.395c0.368,0.267,0.848,0.852,1.428,1.75
		c0.635,0.844,1.042,1.858,1.228,3.051c0.186,1.188,0.065,2.415-0.356,3.686c0,0.426-0.066,1.018-0.197,1.784
		c-0.132,0.767-0.201,1.575-0.201,2.42l-0.473,2.535h1.27c0.418,0,0.999,0.132,1.742,0.399c0.209,0.209,0.422,0.406,0.635,0.592
		c0.209,0.186,0.422,0.275,0.635,0.275c0.635,0,0.871,0.255,0.712,0.755c-0.159,0.503-0.558,0.964-1.188,1.39
		c-1.27,0.844-2.419,1.266-3.449,1.266s-1.971-0.422-2.814-1.266c-0.848-0.898-1.375-1.905-1.583-3.012
		c-0.217-1.115-0.108-2.513,0.313-4.205c0.213-2.326,0.329-4.029,0.36-5.113c0.023-1.084-0.255-1.626-0.836-1.626
		c-0.526,0-1.456,0.355-2.772,1.072c-1.324,0.712-2.803,1.676-4.444,2.892c-1.634,1.22-3.248,2.566-4.832,4.046
		c-1.587,1.479-2.911,3.012-3.964,4.599c-0.635,0.79-1.247,1.494-1.828,2.099C39.625,90.399,39.044,90.729,38.464,90.783z"/>
	<path fill="#41BEE2" d="M73.267,92.525c-0.422-0.419-0.728-0.949-0.91-1.584c-0.186-0.635-0.252-1.266-0.198-1.9
		c0.05-0.635,0.182-1.162,0.395-1.588c0-0.422,0.066-0.751,0.197-0.99c0.132-0.24,0.174-0.465,0.12-0.674s0-0.581,0.159-1.111
		c0.159-0.526,0.317-1.029,0.476-1.506c0.368-0.844,0.767-1.866,1.188-3.051c0.422-1.192,0.817-2.369,1.188-3.53
		c0.372-1.162,0.689-2.168,0.953-3.012c0.263-0.845,0.422-1.375,0.476-1.588c0-0.635,0.422-0.976,1.266-1.029
		c0.635-0.209,1.111-0.225,1.428-0.039s0.74,0.701,1.27,1.545c0.422,0.422,0.581,1.057,0.476,1.9
		c-0.108,0.852-0.449,1.905-1.03,3.175c-0.217,0.426-0.464,1.029-0.755,1.823s-0.492,1.506-0.596,2.141
		c-0.213,0.426-0.46,1.019-0.755,1.781c-0.287,0.771-0.542,1.494-0.751,2.184c-0.108,0.263-0.209,0.65-0.317,1.149
		c-0.108,0.503-0.236,1.03-0.395,1.583c-0.159,0.558-0.372,1.046-0.635,1.472c-0.476,2.168-0.914,3.434-1.309,3.802
		C74.815,93.849,74.165,93.531,73.267,92.525z"/>
	<path fill="#41BEE2" d="M94.831,95.305c-2.323,0-4.228-0.887-5.707-2.656c-1.479-1.772-2.191-3.979-2.137-6.619
		c0.101-1.905,0.488-3.953,1.146-6.148c0.658-2.19,1.549-4.305,2.656-6.341c1.107-2.036,2.323-3.817,3.647-5.351
		c1.324-1.533,2.694-2.617,4.127-3.252c0.526-0.263,1.091-0.479,1.703-0.635c0.604-0.158,1.224-0.24,1.858-0.24
		c0.581,0,1.192,0.094,1.827,0.279s1.162,0.383,1.587,0.596c0.898,0.372,1.58,0.821,2.06,1.348c0.472,0.526,0.898,1.347,1.27,2.454
		c0.155,1.007,0.232,1.719,0.232,2.145c0,0.423-0.132,1.058-0.395,1.901c-0.635,1.9-1.456,3.542-2.454,4.916
		c-1.007,1.375-2.354,2.536-4.042,3.488c-0.426,0.264-0.914,0.465-1.471,0.597c-0.557,0.132-1.123,0.197-1.703,0.197
		c-1.061,0-2.075-0.197-3.051-0.597c-0.983-0.395-1.757-0.99-2.338-1.784l-0.557-0.635l-0.24,0.635
		c-0.526,1.429-0.937,2.749-1.223,3.964c-0.294,1.216-0.441,2.331-0.441,3.33c0,0.635,0.07,1.246,0.201,1.827
		c0.132,0.58,0.325,1.084,0.596,1.502c0.209,0.317,0.565,0.546,1.068,0.678c0.503,0.131,1.045,0.197,1.626,0.197
		c0.364,0,0.751-0.012,1.146-0.039c0.395-0.027,0.782-0.12,1.154-0.278c0.898-0.317,1.626-0.658,2.176-1.03
		c0.557-0.371,1.123-0.767,1.711-1.192l0.31-0.154h-0.077c0.635-0.317,1.456-0.794,2.462-1.429c0.209,0,0.418-0.132,0.635-0.399
		c0.418-0.209,0.96-0.131,1.626,0.24c0.658,0.372,0.991,0.844,0.991,1.425c-0.054,0.268-0.294,0.678-0.72,1.231
		c-0.418,0.558-0.883,1.068-1.386,1.548c-0.503,0.473-0.914,0.74-1.231,0.79c-0.046,0.055-0.232,0.147-0.55,0.279
		c-0.317,0.131-0.534,0.251-0.635,0.355h0.077c-0.472,0.635-0.952,0.953-1.424,0.953h-0.635c-0.217,0.371-0.898,0.781-2.06,1.23
		C97.076,95.076,95.945,95.305,94.831,95.305z M98.4,77.86c0.952,0,1.781-0.278,2.5-0.832c0.712-0.554,1.332-1.177,1.858-1.862
		c1.061-1.429,1.68-2.818,1.866-4.166c0.186-1.347,0.015-2.284-0.519-2.811c-0.317-0.162-0.588-0.255-0.828-0.278
		c-0.24-0.027-0.705,0.065-1.386,0.278c-0.48,0.104-1.138,0.5-1.982,1.185c-0.852,0.689-1.68,1.456-2.501,2.3
		c-0.821,0.848-1.44,1.564-1.866,2.145l-1.03,1.665c0.426-0.163,0.836-0.252,1.231-0.278c0.395-0.027,0.619,0.015,0.673,0.115
		c0,0.48,0.093,0.914,0.279,1.309c0.186,0.399,0.418,0.705,0.712,0.914C97.703,77.752,98.028,77.86,98.4,77.86z"/>
	<path fill="#41BEE2" d="M137.57,94.112c-0.534,0-1.076-0.286-1.626-0.871c-0.557-0.581-1.03-1.309-1.432-2.18
		c-0.395-0.875-0.588-1.703-0.588-2.501c0-0.79,0.193-2.269,0.588-4.437c0.402-2.168,0.89-4.359,1.471-6.581
		c0.418-1.374,0.558-2.168,0.395-2.377c-0.155-0.213-0.875,0.077-2.137,0.871c-0.744,0.367-1.401,0.755-1.982,1.149
		c-0.588,0.396-1.084,0.833-1.51,1.309c-0.263,0.209-0.658,0.554-1.192,1.03c-0.526,0.476-1.084,0.925-1.665,1.347
		c-0.681,0.526-1.556,1.27-2.617,2.223c-1.053,0.952-2.098,1.9-3.128,2.853c-1.03,0.949-1.812,1.692-2.338,2.219
		c-0.108,0.213-0.263,0.395-0.48,0.558c-0.209,0.154-0.449,0.247-0.712,0.278c-0.263,0.023-0.55-0.016-0.867-0.124
		c-0.588-0.154-1.123-0.499-1.626-1.029c-0.503-0.526-0.759-1.135-0.759-1.819c0-0.531,0.217-1.44,0.635-2.741
		c0.426-1.293,0.991-2.865,1.711-4.716c0.712-1.85,1.541-3.805,2.493-5.868c0.163-0.264,0.294-0.593,0.395-0.991
		c0.108-0.396,0.201-0.829,0.279-1.309c0.077-0.473,0.116-0.922,0.116-1.348c0-0.263,0.046-0.542,0.124-0.828
		c0.078-0.294,0.186-0.581,0.317-0.875c0.132-0.286,0.248-0.487,0.356-0.596c0.209-0.419,0.581-0.539,1.107-0.356
		c0.526,0.186,0.976,0.573,1.347,1.153c0.798,0.739,1.208,1.665,1.231,2.772c0.023,1.11-0.248,2.485-0.829,4.122
		c-0.217,0.372-0.387,0.729-0.519,1.073c-0.131,0.34-0.255,0.635-0.356,0.871c-0.108,0.235-0.209,0.491-0.317,0.755
		c0.209,0,0.689-0.24,1.425-0.717c0.743-0.476,1.61-1.003,2.617-1.583c0.797-0.581,1.495-1.123,2.106-1.626
		c0.604-0.504,1.115-0.898,1.541-1.192c0.426-0.287,0.689-0.434,0.797-0.434c0.209,0,0.472-0.077,0.79-0.24
		c0.317-0.155,0.581-0.341,0.79-0.554c0.217-0.213,0.449-0.345,0.72-0.398c0.418-0.047,0.735-0.182,0.944-0.395
		c0.426-0.318,0.983-0.411,1.665-0.279c0.689,0.136,1.324,0.41,1.905,0.836c0.581,0.422,0.875,0.898,0.875,1.425
		c0,0.213,0.132,0.449,0.395,0.713c0.426,0,0.697,0.665,0.836,1.981c0.132,1.324-0.015,2.594-0.441,3.81
		c0,0.79-0.147,1.742-0.434,2.854c-0.294,1.111-0.542,2.168-0.751,3.171c-0.426,1.323-0.712,2.485-0.875,3.491
		c-0.155,1.003-0.186,1.851-0.078,2.532c0.101,0.689,0.287,1.246,0.55,1.665c0.217,0.371,0.217,0.781,0,1.23
		C138.623,93.888,138.205,94.112,137.57,94.112z"/>
	<path fill="#41BEE2" d="M155.959,93.957c-2.641,0-4.568-0.952-5.784-2.856c-0.372-0.526-0.542-1.068-0.519-1.626
		c0.031-0.554,0.186-0.938,0.48-1.15c0.287-0.209,0.643-0.026,1.068,0.554c0.736,0.426,1.796,0.635,3.175,0.635
		c0.681,0,1.394-0.062,2.137-0.197c0.744-0.128,1.479-0.329,2.222-0.592c0.79-0.372,1.316-0.701,1.587-0.991
		c0.263-0.294,0.209-0.542-0.163-0.755h0.077c-1.37-0.368-2.764-0.964-4.158-1.785c-1.401-0.82-2.609-1.719-3.608-2.694
		c-1.006-0.976-1.587-1.866-1.75-2.655c-0.418-1.638-0.31-3.318,0.317-5.033c0.635-1.719,1.533-3.24,2.702-4.561
		c0.418-0.263,0.945-0.596,1.58-0.991c0.635-0.395,1.138-0.619,1.51-0.673v0.077c1.007-1.057,2.23-1.904,3.686-2.536
		c1.456-0.635,2.997-1.215,4.638-1.746l1.192-0.154c0.635-0.108,1.161-0.163,1.587-0.163c-0.054,0,0.047,0.039,0.317,0.12
		c0.264,0.082,0.496,0.147,0.712,0.197c0.318,0.159,0.581,0.24,0.79,0.24c0.689,0.104,1.324,0.422,1.905,0.952
		c0.581,0.527,1.045,1.146,1.386,1.858c0.341,0.717,0.464,1.39,0.356,2.025c-0.108,1.002-0.41,1.9-0.914,2.698
		c-0.503,0.789-1.092,1.238-1.781,1.347c0.108-0.054,0.039-0.146-0.201-0.278c-0.232-0.132-0.488-0.279-0.751-0.438l-0.24,0.158
		c-0.054-0.263-0.131-0.503-0.232-0.712c-0.163-0.317-0.24-0.674-0.24-1.068c0-0.398,0.023-0.836,0.077-1.309
		c0.108-0.581,0.124-0.929,0.039-1.034c-0.078-0.104-0.434-0.182-1.068-0.235c-0.744-0.163-1.812-0.027-3.213,0.395
		c-1.401,0.426-2.571,1.007-3.523,1.742c-1.169,0.743-2.145,1.444-2.935,2.105c-0.797,0.658-1.432,1.294-1.905,1.901
		c-0.472,0.607-0.898,1.309-1.27,2.103c-0.263,0.371-0.488,0.728-0.674,1.068c-0.186,0.344-0.279,0.65-0.279,0.913
		c0,0.581,0.441,1.177,1.309,1.781c0.875,0.611,2.184,1.309,3.926,2.102c1.378,0.585,2.54,1.22,3.492,1.901
		c0.953,0.688,1.61,1.482,1.982,2.381c0.101,0.213,0.139,0.461,0.116,0.755c-0.023,0.29-0.093,0.487-0.201,0.592
		c0.108,0.104,0.163,0.187,0.163,0.236v-0.077c0.418,0.635,0.434,1.297,0.039,1.982c-0.395,0.688-1.061,1.285-1.982,1.784
		c-0.921,0.503-2.052,0.887-3.368,1.15h0.078c-0.689,0.209-1.363,0.355-2.021,0.434C157.167,93.915,156.54,93.957,155.959,93.957z"
		/>
	<path fill="#41BEE2" d="M215.662,96.57c-0.688,0.159-1.262,0.066-1.711-0.274c-0.449-0.349-0.774-0.837-0.991-1.472
		c-0.418-1.215-0.72-2.547-0.905-4.003c-0.186-1.451-0.225-2.732-0.124-3.844l0.162-1.665l-3.097,2.458
		c-1.796,1.588-3.522,2.722-5.188,3.407c-1.665,0.689-3.136,1.03-4.405,1.03c-0.581-0.102-1.162-0.314-1.742-0.632
		c-0.581-0.317-1.1-0.716-1.549-1.188c-0.449-0.476-0.806-0.979-1.068-1.51c-0.317-0.735-0.41-1.742-0.279-3.012
		c0.132-1.27,0.449-2.655,0.953-4.161c0.503-1.507,1.138-2.985,1.904-4.44c0.767-1.452,1.649-2.733,2.656-3.845
		c1.741-2.645,3.623-4.255,5.629-4.835c2.005-0.581,3.987-0.291,5.946,0.871c1.378,0.584,2.229,0.848,2.578,0.793
		c0.341-0.054,0.643-0.662,0.913-1.827c0.209-0.844,0.419-1.703,0.636-2.574c0.209-0.871,0.549-2.048,1.029-3.527
		c1.316-4.018,2.47-7.161,3.445-9.436c0.976-2.271,1.866-4.253,2.656-5.947c0.58-1.215,1.068-1.969,1.471-2.259
		c0.395-0.291,0.806-0.409,1.224-0.356c0.58,0,1.115,0.211,1.587,0.633c0.48,0.424,0.844,1.004,1.115,1.744
		c0.209,0.476,0.302,0.886,0.271,1.229c-0.022,0.344-0.193,0.807-0.511,1.388c-0.689,1.268-1.494,2.948-2.424,5.037
		c-0.921,2.087-1.85,4.375-2.771,6.856c-0.921,2.485-1.781,4.943-2.578,7.375c-0.79,2.431-1.456,4.571-1.982,6.418
		c-0.317,1.166-0.596,2.648-0.828,4.444c-0.24,1.797-0.441,3.632-0.597,5.509c-0.162,1.878-0.255,3.543-0.278,4.994
		c-0.023,1.452,0.016,2.393,0.116,2.814c0.317,1.062,0.465,1.851,0.441,2.377c-0.031,0.531-0.171,0.887-0.441,1.073
		C216.661,96.396,216.243,96.521,215.662,96.57z M202.26,87.771c0.743-0.158,1.472-0.448,2.184-0.874
		c0.713-0.419,1.464-0.922,2.261-1.503c1.58-1.215,2.958-2.326,4.119-3.329c1.161-1.007,1.928-2.539,2.3-4.599
		c0.108-1.007,0.016-1.813-0.279-2.42c-0.286-0.607-0.751-1.177-1.386-1.707c-0.635-0.418-1.494-0.593-2.578-0.512
		c-1.084,0.078-2.207,0.644-3.368,1.704c-1.27,1.161-2.501,2.722-3.686,4.677c-1.192,1.958-2.075,4.358-2.655,7.216
		c-0.108,0.526,0.046,0.952,0.472,1.27S200.936,88.034,202.26,87.771z"/>
	<path fill="#41BEE2" d="M231.597,93.16c-2.067-0.844-3.398-2.021-4.011-3.527c-0.604-1.506-0.72-3.844-0.355-7.019
		c0.108-1.634,0.162-2.718,0.162-3.248s-0.294-1.057-0.875-1.583c-0.154-0.213-0.434-0.504-0.828-0.875
		c-0.402-0.372-0.573-0.686-0.519-0.952c-0.055-0.368-0.023-0.778,0.077-1.228c0.108-0.449,0.264-0.674,0.48-0.674
		c0.209,0,0.434-0.05,0.673-0.158c0.24-0.108,0.465-0.108,0.674,0c0.209,0,0.449,0.026,0.712,0.077
		c0.264,0.054,0.396,0.186,0.396,0.395c0.209,0.372,0.558,0.41,1.029,0.124c0.48-0.294,0.983-0.968,1.51-2.024
		c0.527-0.844,1.231-1.692,2.099-2.536c0.875-0.844,1.75-1.626,2.617-2.338c0.875-0.713,1.603-1.231,2.184-1.549
		c0.263-0.104,0.658-0.236,1.185-0.395c0.534-0.159,1.1-0.291,1.711-0.396c0.604-0.108,1.123-0.131,1.541-0.081
		c0.952,0.055,1.757,0.317,2.423,0.794c0.658,0.472,1.278,1.029,1.858,1.664c0.689,0.477,1.123,1.107,1.309,1.905
		c0.186,0.79,0.225,1.638,0.124,2.535c-0.108,0.898-0.349,1.716-0.72,2.459c-0.155,0.526-0.604,1.161-1.348,1.9
		c-0.735,0.739-1.587,1.456-2.532,2.141c-0.952,0.689-1.827,1.192-2.616,1.51c-0.689,0.155-1.58,0.287-2.656,0.396
		c-1.084,0.104-2.091,0.146-3.012,0.116c-0.929-0.023-1.549-0.116-1.866-0.279c-0.371-0.209-0.666,0.082-0.875,0.875
		c-0.209,0.794-0.371,1.928-0.472,3.407c-0.108,1.165-0.108,2.013,0,2.539c0.101,0.526,0.209,0.898,0.317,1.107
		c0.363,0.372,0.883,0.836,1.54,1.39c0.666,0.554,1.604,0.646,2.818,0.279c1.007-0.268,1.998-0.952,2.974-2.063
		c0.976-1.107,1.89-2.006,2.733-2.694c0.209-0.372,0.572-0.597,1.068-0.674c0.503-0.077,1.045-0.039,1.626,0.116
		c0.58,0.371,0.836,0.809,0.759,1.309c-0.085,0.503-0.356,1.258-0.836,2.261c-0.155,0.371-0.512,0.836-1.069,1.386
		c-0.557,0.558-1.161,1.115-1.827,1.665c-0.658,0.558-1.254,0.991-1.78,1.309c-1.588,0.848-3.066,1.285-4.437,1.309
		C234.183,93.864,232.859,93.64,231.597,93.16z M236.273,77.066c1.161-0.263,2.083-0.449,2.772-0.554
		c0.688-0.108,1.347-0.41,1.981-0.913s1.425-1.464,2.377-2.896c0.217-0.581,0.279-1.162,0.201-1.742
		c-0.077-0.581-0.225-0.976-0.434-1.188c-0.479-0.53-1.045-0.701-1.711-0.516c-0.658,0.187-1.277,0.488-1.858,0.914
		c-0.371,0.155-0.913,0.542-1.626,1.146c-0.712,0.612-1.416,1.297-2.098,2.06c-0.689,0.771-1.247,1.472-1.673,2.106
		c-0.418,0.635-0.526,1.003-0.31,1.107c-0.108,0.213,0.193,0.345,0.906,0.395C235.515,77.04,236.003,77.066,236.273,77.066z"/>
	<path fill="#41BEE2" d="M275.831,92.606c-0.155,0.054-0.418,0.027-0.79-0.081c-0.371-0.101-0.743-0.236-1.107-0.396
		c-0.371-0.154-0.611-0.286-0.72-0.395c-0.209-0.209-0.402-0.526-0.589-0.952c-0.186-0.422-0.201-1.046-0.038-1.862
		c0.154-0.817,0.682-1.89,1.579-3.21c0.264-0.53,0.581-1.323,0.952-2.381c0.372-1.057,0.759-2.179,1.154-3.371
		c0.395-1.185,0.767-2.258,1.107-3.21c0.34-0.948,0.596-1.61,0.751-1.981c0.108-0.898,0.069-1.545-0.116-1.94
		c-0.187-0.398-0.65-0.623-1.386-0.673c-0.535,0-0.938-0.055-1.231-0.163c-0.294-0.104-0.434-0.635-0.434-1.587
		c0.101-0.735,0.302-1.255,0.596-1.541c0.287-0.294,0.697-0.623,1.224-0.991c0.526-0.267,1.076-0.449,1.626-0.558
		c0.558-0.104,1.1-0.131,1.626-0.077c0.526,0.055,0.952,0.236,1.27,0.554c0.372,0.213,0.604,0.674,0.713,1.39
		c0.108,0.713,0.17,1.44,0.201,2.176c0.023,0.743,0.062,1.297,0.116,1.665c0.526-0.418,1.254-1.015,2.184-1.781
		c0.921-0.767,1.727-1.494,2.415-2.184c0.845-0.58,1.851-1.173,3.013-1.78c1.161-0.608,2.005-0.914,2.539-0.914
		c0.581,0,1.161,0.147,1.742,0.438s0.976,0.646,1.192,1.072c0.526,0.898,0.774,1.688,0.751,2.377
		c-0.031,0.689-0.333,1.401-0.914,2.138c-0.526,0.688-1.177,1.165-1.943,1.432c-0.767,0.264-1.254,0.396-1.463,0.396
		c-0.317,0-0.712-0.24-1.192-0.713c-0.473-0.479-0.735-0.875-0.79-1.192c0-0.154-0.333-0.012-0.991,0.438
		c-0.665,0.449-1.386,1.003-2.183,1.665c-0.79,0.662-1.456,1.258-1.982,1.784c-0.898,1.107-1.851,2.617-2.85,4.519
		c-1.007,1.9-2.199,4.2-3.569,6.898c-0.635,1.32-1.084,2.442-1.347,3.372C276.683,91.905,276.311,92.447,275.831,92.606z"/>
	<path fill="#41BEE2" d="M318.493,94.906c-0.534-0.531-1.061-1.255-1.587-2.18c-0.535-0.926-0.953-1.998-1.271-3.214
		c-0.108-0.418-0.146-1.002-0.116-1.742c0.023-0.739,0.008-1.27-0.046-1.587c-0.155,0.372-0.403,0.755-0.751,1.15
		c-0.341,0.398-0.674,0.728-0.991,0.99c-0.209,0.213-0.689,0.624-1.425,1.228c-0.743,0.611-1.479,1.1-2.222,1.471
		c-1.742,1.107-3.183,1.72-4.321,1.82c-1.138,0.108-2.206-0.473-3.213-1.742c-0.844-0.689-1.44-1.456-1.78-2.3
		c-0.349-0.844-0.356-2.006-0.039-3.488c0.101-1.851,0.372-3.658,0.79-5.432c0.426-1.769,1.293-4.134,2.616-7.096
		c1.115-2.164,1.959-3.767,2.54-4.797c0.581-1.029,0.952-1.649,1.107-1.862c0.797-0.267,1.455-0.251,1.982,0.039
		c0.526,0.29,0.844,0.81,0.952,1.545c0.317,0.53,0.278,1.429-0.116,2.694c-0.396,1.27-1.076,2.834-2.021,4.681
		c-0.743,1.8-1.416,3.596-2.028,5.393c-0.604,1.796-0.96,3.329-1.068,4.599c-0.108,1.267,0.209,2.037,0.952,2.3
		c0.48,0.264,1.309,0.186,2.501-0.24c1.185-0.422,2.532-1.479,4.042-3.17c1.502-1.692,2.973-4.255,4.397-7.692
		c0.426-1.054,0.743-1.994,0.952-2.814c0.209-0.817,0.341-1.73,0.396-2.737c-0.101-0.631-0.063-1.2,0.124-1.703
		c0.186-0.504,0.588-0.938,1.223-1.309c0.217-0.264,0.504-0.512,0.875-0.751c0.372-0.24,0.604-0.225,0.713,0.038l1.27-0.077
		c0.209-0.054,0.356,0.065,0.434,0.356c0.085,0.29,0.256,0.542,0.519,0.751c0.581,0.476,0.735,1.51,0.473,3.093
		c-0.264,1.584-0.999,3.806-2.215,6.663c-1.006,2.168-1.68,3.802-2.021,4.912c-0.349,1.111-0.55,2.195-0.597,3.252
		c0,0.949,0.187,1.851,0.55,2.694c0.372,0.849,0.953,1.615,1.75,2.3c0.581,0.368,0.906,0.794,0.991,1.267
		c0.077,0.479,0.093,1.033,0.039,1.668c-0.108,0.477-0.411,0.859-0.914,1.149c-0.503,0.287-1.068,0.434-1.703,0.434
		S319.02,95.273,318.493,94.906z"/>
	<path fill="#41BEE2" d="M336.487,95.305c-2.323,0-4.228-0.887-5.707-2.656c-1.479-1.772-2.19-3.979-2.137-6.619
		c0.101-1.905,0.488-3.953,1.146-6.148c0.657-2.19,1.548-4.305,2.655-6.341s2.323-3.817,3.646-5.351
		c1.324-1.533,2.695-2.617,4.127-3.252c0.526-0.263,1.092-0.479,1.704-0.635c0.604-0.158,1.223-0.24,1.857-0.24
		c0.581,0,1.192,0.094,1.828,0.279c0.635,0.186,1.161,0.383,1.587,0.596c0.898,0.372,1.579,0.821,2.06,1.348
		c0.472,0.526,0.898,1.347,1.27,2.454c0.155,1.007,0.232,1.719,0.232,2.145c0,0.423-0.132,1.058-0.395,1.901
		c-0.636,1.9-1.456,3.542-2.455,4.916c-1.006,1.375-2.354,2.536-4.041,3.488c-0.426,0.264-0.914,0.465-1.472,0.597
		s-1.122,0.197-1.703,0.197c-1.061,0-2.075-0.197-3.051-0.597c-0.983-0.395-1.758-0.99-2.338-1.784l-0.558-0.635l-0.24,0.635
		c-0.526,1.429-0.937,2.749-1.224,3.964c-0.294,1.216-0.441,2.331-0.441,3.33c0,0.635,0.07,1.246,0.202,1.827
		c0.131,0.58,0.325,1.084,0.596,1.502c0.209,0.317,0.565,0.546,1.068,0.678c0.504,0.131,1.046,0.197,1.626,0.197
		c0.364,0,0.751-0.012,1.146-0.039c0.395-0.027,0.781-0.12,1.153-0.278c0.898-0.317,1.626-0.658,2.176-1.03
		c0.558-0.371,1.122-0.767,1.711-1.192l0.31-0.154h-0.077c0.635-0.317,1.455-0.794,2.462-1.429c0.209,0,0.418-0.132,0.635-0.399
		c0.418-0.209,0.96-0.131,1.626,0.24c0.658,0.372,0.991,0.844,0.991,1.425c-0.054,0.268-0.294,0.678-0.72,1.231
		c-0.418,0.558-0.883,1.068-1.386,1.548c-0.504,0.473-0.914,0.74-1.231,0.79c-0.047,0.055-0.232,0.147-0.55,0.279
		c-0.317,0.131-0.534,0.251-0.635,0.355h0.077c-0.472,0.635-0.952,0.953-1.425,0.953h-0.635c-0.217,0.371-0.898,0.781-2.06,1.23
		C338.732,95.076,337.602,95.305,336.487,95.305z M340.057,77.86c0.952,0,1.78-0.278,2.501-0.832
		c0.712-0.554,1.331-1.177,1.858-1.862c1.061-1.429,1.68-2.818,1.865-4.166c0.187-1.347,0.016-2.284-0.519-2.811
		c-0.317-0.162-0.588-0.255-0.828-0.278c-0.24-0.027-0.705,0.065-1.386,0.278c-0.48,0.104-1.139,0.5-1.982,1.185
		c-0.852,0.689-1.681,1.456-2.501,2.3c-0.82,0.848-1.44,1.564-1.866,2.145l-1.029,1.665c0.426-0.163,0.836-0.252,1.23-0.278
		c0.396-0.027,0.62,0.015,0.674,0.115c0,0.48,0.093,0.914,0.279,1.309c0.186,0.399,0.418,0.705,0.712,0.914
		S339.685,77.86,340.057,77.86z"/>
</g>
<g>
	<g>
		<path fill="#41BEE2" d="M77.664,42.78c4.561-1.117,12.37-0.804,15.239,3.506c0.423,0.635,2.285-0.048,1.781-0.805
			c-3.287-4.937-12.174-5.112-17.328-3.851C76.168,41.921,76.485,43.068,77.664,42.78L77.664,42.78z"/>
	</g>
</g>
<g>
	<g>
		<path fill="#41BEE2" d="M76.541,42.547c-2.123,4.37,1.5,13.847,6.992,14.103c6.468,0.3,10.217-7.068,11.467-12.439
			c0.187-0.804-1.772-0.514-1.94,0.21c-0.886,3.806-4.056,11.98-9.271,10.92c-4.175-0.849-7.155-9.142-5.432-12.691
			C78.792,41.751,76.849,41.913,76.541,42.547L76.541,42.547z"/>
	</g>
</g>
<g>
	<g>
		<path fill="#41BEE2" d="M77.511,28.032c-0.106,0.704-0.214,1.408-0.321,2.112c-0.05,0.329-0.301,0.994-0.083,1.292
			c0.428,0.587,0.71,0.617,1.423,0.726c0.444,0.068,1.258-0.037,1.49-0.508c1.028-2.092,1.581-4.339-0.347-6.08
			c-0.458-0.414-1.481-0.123-1.797,0.354c-1.31,1.974-1.81,4.508-0.106,6.411c0.432,0.482,1.477,0.057,1.797-0.354
			c1.513-1.933,1.737-4.053,0.567-6.227c-0.318-0.592-1.589-0.284-1.868,0.229c-1.01,1.859-1.112,3.824-0.509,5.836
			c0.202,0.675,1.626,0.193,1.868-0.229c0.348-0.609,0.713-1.232,0.759-1.947c0.049-0.771-0.31-1.587-0.49-2.321
			c-0.183-0.742-1.595-0.101-1.868,0.229c-0.501,0.608-1.046,1.2-1.292,1.964c-0.216,0.672,0.091,1.538,0.241,2.186
			c0.157,0.681,1.649,0.183,1.868-0.229c0.565-1.065,1.112-1.955,1.324-3.165c0.143-0.818-1.473-0.301-1.745-0.055
			c-0.784,0.708-0.767,1.516-1.262,2.376c-0.467,0.811,1.479,0.624,1.804,0.059c0.396-0.687,0.408-1.544,1.014-2.092
			c-0.582-0.019-1.163-0.037-1.745-0.055c-0.192,1.101-0.679,1.906-1.193,2.874c0.623-0.077,1.245-0.153,1.868-0.229
			c-0.142-0.615-0.359-1.267-0.238-1.901c0.117-0.614,0.784-1.215,1.162-1.672c-0.623,0.077-1.245,0.153-1.868,0.229
			c0.145,0.59,0.327,1.172,0.451,1.767c0.146,0.701-0.259,1.342-0.592,1.924c0.623-0.077,1.245-0.153,1.868-0.229
			c-0.537-1.795-0.529-3.584,0.381-5.26c-0.623,0.077-1.245,0.153-1.868,0.229c1.076,2,0.969,3.851-0.439,5.651
			c0.599-0.118,1.198-0.236,1.797-0.354c-1.491-1.666-1.023-3.866,0.119-5.586c-0.599,0.118-1.198,0.236-1.797,0.354
			c1.676,1.513,1.236,3.421,0.334,5.255c0.497-0.169,0.993-0.338,1.49-0.508c-0.169-0.026-0.339-0.052-0.509-0.078
			c-0.253-0.054-0.26-0.04-0.021,0.042c-0.075-0.104-0.151-0.207-0.226-0.31c-0.041-0.056,0.215-1.094,0.235-1.225
			c0.087-0.572,0.175-1.145,0.262-1.717C79.564,27.016,77.614,27.355,77.511,28.032L77.511,28.032z"/>
	</g>
</g>
<g>
	<g>
		<path fill="#41BEE2" d="M95.898,28.837c-1.044-0.383-2.206,0.253-2.749,1.134c-0.76,1.232-0.834,3.127-0.559,4.504
			c0.082,0.408,1.118,0.09,1.315,0.019c2.79-1.009,4.069-3.71,2.292-6.295c-0.322-0.469-1.561-0.067-1.849,0.301
			c-1.337,1.709-1.907,3.677-0.916,5.704c0.257,0.527,1.74,0.014,1.923-0.413c0.574-1.337,1.089-2.479,0.996-3.962
			c-0.036-0.577-1.744,0.113-1.923,0.413c-0.832,1.394-1.487,2.324-0.996,3.962c0.166,0.552,1.764-0.023,1.923-0.413
			c0.601-1.472,0.729-2.835,0.663-4.415c-0.022-0.532-1.67,0.072-1.849,0.301c-0.508,0.653-1.646,2.111-1.345,3.042
			c0.184,0.569,1.604-0.061,1.849-0.301c0.096-0.095,0.11-0.188,0.133-0.313c0.102-0.557-1.817-0.219-1.914,0.309
			c-0.049,0.12-0.043,0.15,0.016,0.089c0.616-0.101,1.232-0.201,1.849-0.301c-0.243-0.748,0.8-2.122,1.179-2.609
			c-0.616,0.101-1.232,0.201-1.849,0.301c0.063,1.513-0.072,2.802-0.646,4.206c0.641-0.138,1.282-0.275,1.923-0.413
			c-0.467-1.558,0.194-2.439,0.979-3.753c-0.641,0.138-1.282,0.275-1.923,0.413c0.088,1.41-0.438,2.492-0.979,3.753
			c0.641-0.138,1.282-0.275,1.923-0.413c-0.91-1.861-0.499-3.676,0.75-5.271c-0.616,0.101-1.232,0.201-1.849,0.301
			c1.198,1.743,1.255,4.385-1.06,5.223c0.438,0.006,0.877,0.012,1.315,0.019c-0.169-0.847-0.152-1.68-0.023-2.532
			c0.057-0.375,0.16-0.74,0.274-1.1c0.054-0.157,0.116-0.312,0.186-0.462c0.035-0.067,0.069-0.134,0.104-0.201
			c0.358-0.415,0.113-0.42-0.736-0.016C94.803,29.822,96.556,29.079,95.898,28.837L95.898,28.837z"/>
	</g>
</g>
<g>
	<g>
		<path fill="#41BEE2" d="M77.531,21.755c-0.937-4.64-0.472-9.537-2.288-13.981c-0.321-0.787-1.549-0.434-1.888,0.152
			c-2.851,4.93-7.475,8.378-10.712,13.017c-0.273,0.391-0.186,0.722,0.248,0.924c3.109,1.451,6.036,0.553,9.209-0.307
			c-0.385-0.192-0.769-0.385-1.153-0.578c-0.475,2.116,0.078,3.529,0.806,5.518c0.226,0.617,1.188,0.522,1.604,0.175
			c2.202-1.837,3.671-3.917,2.457-6.786c-0.361-0.854-2.277-0.298-1.932,0.518c0.975,2.304,0.057,3.85-1.802,5.401
			c0.535,0.058,1.07,0.117,1.604,0.175c-0.657-1.795-1.222-3.192-0.781-5.151c0.136-0.605-0.793-0.675-1.153-0.578
			c-2.658,0.72-5.003,1.601-7.74,0.324c0.083,0.308,0.165,0.616,0.248,0.924c3.319-4.755,8.019-8.305,10.944-13.362
			c-0.629,0.051-1.259,0.102-1.888,0.152c1.815,4.444,1.351,9.341,2.288,13.981C75.778,23.16,77.714,22.66,77.531,21.755
			L77.531,21.755z"/>
	</g>
</g>
<g>
	<g>
		<path fill="#41BEE2" d="M96.072,23.926c0.961-8.088,5.873-16.248,9.902-23.19c-0.625,0.068-1.25,0.136-1.874,0.205
			c0.387,3.428,0.028,6.978-0.337,10.393c-0.21,1.972-0.476,8.593-2.646,9.601c-1.212,0.563-0.112,1.346,0.798,0.923
			c2.566-1.191,2.927-5.198,3.355-7.602c0.792-4.452,1.272-9.315,0.762-13.833c-0.086-0.768-1.647-0.187-1.874,0.205
			c-4.066,7.005-9.054,15.314-10.027,23.506C94.029,24.993,95.985,24.66,96.072,23.926L96.072,23.926z"/>
	</g>
</g>
<g>
	<g>
		<path fill="#41BEE2" d="M95.603,23.46c-0.008,0-0.016,0.001-0.024,0.001c-0.435,0.014-1.609,0.693-0.862,1.145
			c1.584,0.96,3.655,1.196,5.332,2.007c0.572,0.277,1.528,0.051,1.728-0.612c0.81-2.684,1.618-5.367,2.427-8.05
			c0.245-0.812-1.719-0.56-1.945,0.19c-0.81,2.684-1.618,5.367-2.427,8.05c0.576-0.204,1.152-0.408,1.728-0.612
			c-1.67-0.808-3.763-1.057-5.332-2.006c-0.287,0.382-0.575,0.763-0.862,1.145c0.008,0,0.016,0,0.024,0
			C96.428,24.684,96.927,23.417,95.603,23.46L95.603,23.46z"/>
	</g>
</g>
<g>
	<g>
		<path fill="#41BEE2" d="M78.296,46.596c-0.349,3.38,1.044,6.227,3.834,8.138c0.488,0.335,1.761-0.077,1.731-0.739
			c-0.135-2.964-1.724-5.133-3.822-7.112c-0.478-0.451-1.885-0.092-1.861,0.644c0.102,3.081,1.581,5.81,4.343,7.261
			c0.449,0.236,1.64,0.018,1.733-0.595c0.079-0.521,0.158-1.042,0.236-1.563c-0.518,0.22-1.036,0.438-1.554,0.657
			c0.448,0.068,0.676,1.48,0.895,1.915c0.342,0.679,1.516,0.2,1.869-0.226c0.694-0.836,1.6-1.469,2.467-2.11
			c1.064-0.789-0.581-1.037-1.211-0.619c-0.859,0.571-1.72,1.038-2.431,1.791c-0.832,0.879,1.104,0.722,1.559,0.354
			c1.684-1.36,5.404-4.307,3.79-6.928c-1.561-2.535-5.386-3.305-8.036-4.028c-0.237,0.368-0.474,0.736-0.711,1.104
			c2.818-0.399,5.883-1.291,8.551,0.112c0.451-0.341,0.901-0.683,1.352-1.024c-2.483-0.376-4.966-0.754-7.449-1.13
			c-0.319,0.372-0.637,0.743-0.956,1.114c2.573,0.306,6.636-0.793,7.851,2.173c1.173,2.865-1.887,6.19-4.084,7.579
			c0.462,0.162,0.923,0.324,1.385,0.487c1.026-1.002,2.266-1.708,3.434-2.527c-0.524-0.065-1.049-0.131-1.573-0.195
			c-0.629,1.607-1.615,2.485-3.421,2.65c-0.967,0.089-1.587,1.243-0.25,1.121c2.659-0.244,4.618-1.473,5.607-4
			c0.275-0.703-1.356-0.347-1.573-0.195c-1.292,0.907-2.647,1.683-3.783,2.791c-0.821,0.802,0.952,0.761,1.385,0.487
			c2.764-1.748,5.813-5.213,4.805-8.715c-1.062-3.688-6.264-2.466-9.043-2.797c-0.584-0.069-2.014,0.954-0.956,1.114
			c2.483,0.376,4.966,0.754,7.449,1.13c0.396,0.06,2.26-0.546,1.352-1.024c-3.092-1.625-6.555-0.735-9.831-0.271
			c-0.453,0.064-1.743,0.822-0.711,1.104c2.376,0.648,5.174,1.277,6.973,3.082c2.227,2.233-1.597,5.208-3.113,6.434
			c0.52,0.117,1.039,0.236,1.559,0.354c0.614-0.649,1.351-1.039,2.083-1.525c-0.404-0.206-0.807-0.413-1.211-0.619
			c-1.096,0.813-2.186,1.607-3.062,2.663c0.623-0.075,1.246-0.15,1.869-0.226c-0.485-0.963-0.444-2.302-1.653-2.483
			c-0.445-0.067-1.465,0.063-1.554,0.657c-0.078,0.521-0.157,1.042-0.236,1.563c0.578-0.198,1.155-0.396,1.733-0.595
			c-2.596-1.364-3.847-3.961-3.942-6.818c-0.62,0.214-1.241,0.429-1.861,0.644c2.025,1.91,3.549,3.993,3.681,6.859
			c0.577-0.246,1.154-0.493,1.731-0.739c-2.505-1.717-3.741-4.385-3.429-7.405C80.315,45.553,78.367,45.912,78.296,46.596
			L78.296,46.596z"/>
	</g>
</g>
<g>
	<g>
		<path fill="#41BEE2" d="M78.592,20.338c2.36-1.121,6.637,0.298,9.072,0.75c2.447,0.455,4.876,1.004,7.333,1.402
			c0.443,0.072,2.089-0.644,1.594-0.725c-3.978-0.644-7.894-1.605-11.89-2.149c-2.371-0.322-4.988-0.549-7.212,0.508
			C76.339,20.671,78.158,20.544,78.592,20.338L78.592,20.338z"/>
	</g>
</g>
<g>
	<g>
		<path fill="#41BEE2" d="M72.045,24.621c-6.128,14.364,1.54,31.672,7.619,44.781c0.228,0.491,0.962,0.381,1.364,0.201
			c18.003-8.072,18.648-29.396,21.164-46.353c0.125-0.847-1.833-0.525-1.941,0.208c-2.394,16.138-2.77,37.49-20.019,45.225
			c0.455,0.067,0.91,0.134,1.364,0.201c-5.943-12.815-13.727-30.111-7.734-44.157C74.259,23.797,72.323,23.969,72.045,24.621
			L72.045,24.621z"/>
	</g>
</g>
<g>
	<g>
		<path fill="#41BEE2" d="M83.487,43.374c-0.528-0.084-0.854-0.137-1.213-0.531c-0.505,0.267-1.01,0.534-1.516,0.8
			c2.433,0.371,4.858,0.746,7.211,1.487c0.521-0.276,1.044-0.552,1.565-0.828c-0.707-0.216-1.333-0.289-2.068-0.194
			c-0.818,0.106-1.462,0.692-2.261,0.815c-0.84,0.129-1.668,1.074-0.318,0.866c0.986-0.152,2.118-0.955,3.082-0.66
			c0.494,0.151,2.244-0.615,1.565-0.828c-2.463-0.776-5.007-1.171-7.554-1.56c-0.266-0.041-1.964,0.308-1.516,0.8
			c0.489,0.537,1.107,0.622,1.799,0.731C82.758,44.353,84.518,43.537,83.487,43.374L83.487,43.374z"/>
	</g>
</g>
<g>
	<g>
		<path fill="#41BEE2" d="M78.05,57.576c3.722,5.543,9.381,3.798,13.399-0.44c0.786-0.828-1.105-0.803-1.553-0.33
			c-1.485,1.565-3.258,3.273-5.557,3.321c-2.014,0.041-3.493-1.817-4.496-3.313C79.475,56.267,77.601,56.907,78.05,57.576
			L78.05,57.576z"/>
	</g>
</g>
<g>
	<g>
		<path fill="#41BEE2" d="M77.354,42.071c-0.165,0.268-0.35,0.467-0.396,0.766c-0.112,0.732,1.613,0.108,1.848-0.164
			c0.091-0.106,0.183-0.211,0.273-0.317c-0.618,0.093-1.236,0.187-1.854,0.28c0.111,0.616-0.333,1.285-0.622,1.795
			c-0.316,0.556,1.534,0.094,1.719-0.042c0.627-0.461,1.254-0.923,1.882-1.386c-0.573,0.014-1.146,0.028-1.719,0.042
			c-0.346,0.831-0.845,1.555-1.499,2.172c0.549,0.026,1.099,0.053,1.647,0.08c1.096-1.034,2.257-1.994,3.355-3.026
			c-0.573,0.014-1.146,0.028-1.719,0.042c-0.748,1.979-1.901,3.688-3.111,5.408c-0.479,0.681,1.459,0.314,1.776-0.042
			c1.588-1.784,3.016-3.788,5.159-4.947c-0.514-0.024-1.027-0.049-1.541-0.073c-0.937,1.936-2.086,3.69-3.436,5.36
			c-0.528,0.652,1.374,0.295,1.647,0.08c1.593-1.255,2.953-2.751,4.418-4.148c-0.616,0.055-1.232,0.109-1.848,0.164
			c-0.538,2.493-2.223,4.267-3.586,6.339c-0.459,0.697,1.466,0.335,1.776-0.042c1.626-1.974,3.478-3.695,5.388-5.39
			c-0.573,0.014-1.146,0.028-1.719,0.042c-1.129,2.502-2.75,4.669-4.334,6.894c-0.491,0.689,1.462,0.287,1.776-0.041
			c2.194-2.298,4.22-4.748,6.415-7.044c-0.616,0.055-1.232,0.109-1.848,0.164c-1.224,2.774-2.854,5.321-4.481,7.872
			c-0.447,0.7,1.47,0.355,1.776-0.041c2.059-2.667,4.137-5.305,6.515-7.697c-0.616,0.055-1.232,0.109-1.848,0.164
			c-1.503,3.082-3.322,5.946-5.286,8.751c-0.471,0.673,1.458,0.339,1.776-0.041c1.964-2.35,3.676-4.899,5.765-7.144
			c-0.592,0.014-1.184,0.028-1.776,0.042c-1.431,2.325-2.826,4.627-4.688,6.639c0.592-0.014,1.184-0.027,1.776-0.041
			c1.297-1.573,2.502-3.158,3.482-4.95c0.247-0.451-1.577-0.259-1.848,0.164c-1.377,2.147-2.913,4.02-5.063,5.442
			c0.573-0.015,1.146-0.028,1.719-0.042c0.427-2.329,1.337-4.303,2.878-6.118c0.488-0.574-1.424-0.373-1.776,0.042
			c-1.594,1.875-2.577,3.934-3.022,6.361c-0.131,0.715,1.496,0.105,1.719-0.042c2.243-1.483,3.876-3.433,5.32-5.685
			c-0.616,0.055-1.232,0.109-1.848,0.164c-0.938,1.713-2.102,3.205-3.339,4.705c-0.501,0.607,1.435,0.327,1.776-0.041
			c1.863-2.013,3.258-4.314,4.688-6.64c0.459-0.746-1.475-0.282-1.776,0.042c-2.089,2.244-3.801,4.794-5.765,7.143
			c0.592-0.014,1.184-0.027,1.776-0.041c2.019-2.884,3.885-5.83,5.43-8.996c0.289-0.591-1.615-0.07-1.848,0.164
			c-2.379,2.393-4.457,5.029-6.515,7.696c0.592-0.014,1.184-0.027,1.776-0.041c1.677-2.63,3.363-5.256,4.625-8.117
			c0.271-0.615-1.618-0.077-1.848,0.164c-2.195,2.296-4.221,4.746-6.415,7.043c0.592-0.014,1.184-0.027,1.776-0.041
			c1.642-2.306,3.309-4.548,4.478-7.139c0.266-0.588-1.519-0.135-1.719,0.042c-1.999,1.773-3.943,3.565-5.646,5.633
			c0.592-0.014,1.184-0.028,1.776-0.042c1.422-2.162,3.169-3.985,3.73-6.583c0.161-0.747-1.624-0.05-1.848,0.164
			c-1.379,1.313-2.661,2.723-4.161,3.905c0.549,0.026,1.099,0.053,1.647,0.08c1.413-1.748,2.601-3.58,3.58-5.604
			c0.278-0.575-1.397-0.15-1.541-0.073c-2.397,1.296-3.994,3.418-5.774,5.42c0.592-0.014,1.184-0.028,1.776-0.042
			c1.269-1.805,2.472-3.579,3.254-5.652c0.232-0.615-1.516-0.148-1.719,0.042c-1.184,1.113-2.431,2.153-3.613,3.269
			c-0.512,0.483,1.299,0.406,1.647,0.08c0.836-0.783,1.374-1.647,1.9-2.659c0.303-0.582-1.538-0.091-1.719,0.042
			c-0.627,0.462-1.254,0.924-1.882,1.386c0.573-0.014,1.146-0.028,1.719-0.042c0.349-0.615,0.764-1.301,0.633-2.026
			c-0.112-0.621-1.636,0.027-1.854,0.28c-0.091,0.105-0.183,0.211-0.273,0.316c0.616-0.055,1.232-0.109,1.848-0.164
			c0.084-0.174,0.168-0.348,0.252-0.522C79.553,41.343,77.638,41.609,77.354,42.071L77.354,42.071z"/>
	</g>
</g>
<g>
	<g>
		<path fill="#41BEE2" d="M78.668,44.499c2.178-1.89,5.865-0.564,8.401-0.155c0.617,0.1,2.281-0.878,1.182-1.056
			c-3.678-0.594-7.992-1.84-11.134,0.886C76.271,44.91,78.192,44.912,78.668,44.499L78.668,44.499z"/>
	</g>
</g>
<g>
	<g>
		<path fill="#41BEE2" d="M79.779,43.595c2.833-1.852,6.26-0.136,9.108,0.609c0.508,0.133,2.236-0.659,1.564-0.835
			c-4.297-1.125-8.149-2.59-12.185,0.048C77.412,43.976,79.367,43.864,79.779,43.595L79.779,43.595z"/>
	</g>
</g>
<g>
	<g>
		<path fill="#41BEE2" d="M86.975,44.132c-2.398-0.868-5.377-0.766-7.817-0.139c-0.938,0.241-2.233,0.73-2.633,1.708
			c-0.476,1.166,0.76,2.215,1.555,2.853c0.532,0.426,2.32-0.333,1.795-0.754c-0.588-0.471-1.6-1.207-1.506-2.079
			c0.067-0.631,1.028-0.773,1.5-0.88c1.695-0.384,3.919-0.375,5.567,0.222C86.017,45.273,87.771,44.421,86.975,44.132L86.975,44.132
			z"/>
	</g>
</g>
<g>
	<g>
		<path fill="#41BEE2" d="M77.669,43.868c-0.327,2.868,0.966,9.164,4.609,9.425c1.917,0.138,3.498-1.608,3.673-3.387
			c0.215-2.181-1.537-4.762-3.339-5.832c-0.483-0.287-1.421-0.101-1.668,0.447c-1.596,3.546-0.04,9.041,3.911,10.261
			c0.765,0.236,2.282-0.874,1.135-1.229c-3.267-1.01-4.51-5.981-3.212-8.864c-0.556,0.149-1.112,0.298-1.668,0.447
			c1.359,0.807,2.223,2.252,2.708,3.719c0.354,1.069,0.249,2.212-0.667,2.956c-0.612,0.497-1.278-0.45-1.589-0.852
			c-1.401-1.811-2.201-5-1.942-7.267C79.726,42.759,77.761,43.06,77.669,43.868L77.669,43.868z"/>
	</g>
</g>
<g>
	<g>
		<path fill="#41BEE2" d="M79.575,51.345c0.371,1.32,1.085,2.736,2.364,3.379c1.371,0.688,2.799,0.091,3.739-1.004
			c0.803-0.937-1.036-1.293-1.626-0.605c-0.486,0.566-0.81,0.503-1.342-0.018c-0.623-0.608-0.973-1.447-1.204-2.27
			C81.248,49.905,79.317,50.426,79.575,51.345L79.575,51.345z"/>
	</g>
</g>
<g>
	<g>
		<path fill="#41BEE2" d="M79.022,50.594c1.512,4.792,7.216,5.241,9.439,0.753c0.257-0.519-1.636-0.325-1.927,0.262
			c-0.691,1.395-1.616,2.344-3.182,1.625c-1.246-0.572-2.007-1.913-2.399-3.157C80.753,49.44,78.83,49.985,79.022,50.594
			L79.022,50.594z"/>
	</g>
</g>
<g>
	<g>
		<path fill="#41BEE2" d="M80.642,53.576c0.79,0.816,1.758,1.442,2.937,1.37c1.207-0.073,2.333-0.546,3.141-1.454
			c0.283-0.318-0.249-0.336-0.457-0.319c-0.392,0.032-1.014,0.148-1.293,0.462c-0.408,0.458-0.597,0.575-1.181,0.317
			c-0.515-0.227-0.941-0.638-1.327-1.036C82.115,52.558,80.339,53.263,80.642,53.576L80.642,53.576z"/>
	</g>
</g>
<g>
	<g>
		<path fill="#41BEE2" d="M80.942,54.045c0.597,0.976,1.447,1.71,2.618,1.829c1.174,0.12,2.247-0.531,2.995-1.378
			c0.808-0.915-1.044-1.2-1.613-0.557c-0.282,0.319-0.56,0.627-1.005,0.492c-0.56-0.17-0.939-0.766-1.225-1.232
			C82.263,52.467,80.418,53.19,80.942,54.045L80.942,54.045z"/>
	</g>
</g>
<g>
	<g>
		<path fill="#41BEE2" d="M81.201,54.363c4.257,3.159,8.386-2.187,9.063-6.087c0.119-0.685-1.819-0.341-1.925,0.267
			c-0.227,1.307-0.742,2.529-1.439,3.653c-0.96,1.547-2.198,2.698-3.898,1.436C82.483,53.246,80.727,54.011,81.201,54.363
			L81.201,54.363z"/>
	</g>
</g>
<g>
	<g>
		<path fill="#41BEE2" d="M87.906,50.572c0.967-1.854,2.159-3.596,2.853-5.581c0.167-0.479-1.725-0.239-1.915,0.305
			c-0.694,1.985-1.886,3.727-2.853,5.581C85.791,51.261,87.631,51.1,87.906,50.572L87.906,50.572z"/>
	</g>
</g>
<g>
	<g>
		<path fill="#41BEE2" d="M87.858,44.914c0.61-0.07,1.383-0.119,1.861,0.357c0.562,0.56,0.534,1.423,0.435,2.148
			c-0.138,1.002,1.837,0.752,1.959-0.139c0.141-1.026,0.063-2.181-0.711-2.953c-0.882-0.879-2.202-0.993-3.381-0.859
			c-0.431,0.049-1.005,0.292-1.061,0.792C86.906,44.738,87.467,44.958,87.858,44.914L87.858,44.914z"/>
	</g>
</g>
<g>
	<g>
		<path fill="#41BEE2" d="M79.278,42.277c-0.084,0.014-0.168,0.028-0.252,0.042c-0.063,0.448-0.127,0.895-0.19,1.343
			c0.572-0.074,1.142-0.152,1.711-0.242c1.013-0.16,1.549-1.39,0.19-1.343c-0.28-0.05-0.56-0.101-0.839-0.151
			c-0.22,0.432-0.44,0.864-0.66,1.296c0.281-0.013,0.563-0.027,0.844-0.041c-0.274-0.254-0.549-0.509-0.823-0.763
			c-1.818,2.935,3.813,4.631,2.818,7.278c-0.383,1.019,1.54,0.933,1.837,0.184c0.073-0.256,0.191-0.488,0.356-0.697
			c-0.628,0.056-1.256,0.111-1.884,0.167c0.585,1.188-0.122,2.484,0.015,3.761c0.084,0.791,1.468,0.3,1.767,0
			c0.682-0.682,1.012-1.423,1.232-2.354c0.218-0.923-1.462-0.507-1.777-0.175c-0.594,0.404-0.574,0.556,0.059,0.455
			c-0.217-0.399-0.417-0.807-0.6-1.223c-0.236-0.51-0.412-1.051-0.698-1.539c-0.686-1.168-1.462-1.763-2.794-1.981
			c-0.438-0.072-1.516,0.304-1.309,0.929c0.039,0.117,0.078,0.235,0.116,0.352c0.264,0.801,1.834,0.388,1.942-0.342
			c0.126-0.857,0.222-1.69,0.221-2.557c-0.001-0.973-1.911-0.656-1.952,0.167c-0.046,0.927-0.046,1.786,0.126,2.7
			c0.125,0.663,1.254,0.406,1.598,0.15c0.583-0.434,0.876-0.858,1.219-1.514c-0.628,0.056-1.256,0.111-1.884,0.167
			c0.201,0.533,0.415,0.869,0.83,1.273c0.597,0.581,2.426-0.196,1.773-0.831c-0.322-0.247-0.546-0.566-0.672-0.96
			c-0.286-0.757-1.585-0.404-1.884,0.167c-0.128,0.357-0.344,0.65-0.647,0.879c0.533,0.05,1.065,0.1,1.598,0.15
			c-0.148-0.787-0.146-1.551-0.106-2.349c-0.651,0.056-1.301,0.111-1.952,0.167c0.001,0.867-0.095,1.7-0.221,2.557
			c0.647-0.114,1.295-0.228,1.942-0.342c-0.039-0.118-0.077-0.235-0.116-0.352c-0.436,0.31-0.873,0.62-1.309,0.929
			c2.446,0.401,1.599,3.703,3.325,4.581c1.223,0.622,2.176-0.254,2.996-1.115c-0.592-0.059-1.185-0.117-1.777-0.176
			c-0.086,0.668-0.381,1.225-0.882,1.669c0.589,0,1.178,0,1.767,0c-0.146-1.366,0.63-2.452-0.015-3.761
			C83.95,48.086,82.805,48.43,82.434,49c-0.166,0.208-0.284,0.44-0.356,0.697c0.612,0.061,1.225,0.123,1.837,0.184
			c1.064-2.831-4.173-5.089-2.818-7.278c0.337-0.544-0.444-0.782-0.823-0.763c-0.281,0.013-0.563,0.027-0.844,0.041
			c-0.619,0.03-1.659,0.948-0.66,1.296c0.735,0.256,1,0.271,1.778,0.244c0.063-0.448,0.127-0.895,0.19-1.343
			c-0.569,0.09-1.14,0.168-1.711,0.242c-1.033,0.134-1.536,1.388-0.19,1.343c0.284-0.009,0.509-0.042,0.778-0.135
			C80.757,43.131,80.449,41.871,79.278,42.277L79.278,42.277z"/>
	</g>
</g>
<g>
	<g>
		<path fill="#41BEE2" d="M88.981,46.671c0.588,0.377-0.426,3.178-0.647,3.646c-0.458,0.968,1.487,0.886,1.835,0.176
			c0.442-0.903,0.823-1.819,1.473-2.599c-0.592-0.056-1.184-0.112-1.775-0.168c-0.206,1.639-0.964,2.961-2.028,4.201
			c-0.782,0.911-1.969,2.419-3.087,2.845c0.405,0.26,0.811,0.52,1.216,0.779c1.493-1.727,2.501-3.133,2.545-5.491
			c0.018-0.965-1.936-0.64-1.951,0.171c-0.038,2.098-0.866,3.278-2.193,4.814c-0.726,0.84,0.695,0.978,1.216,0.779
			c1.475-0.562,2.356-1.944,3.471-2.989c1.467-1.376,2.513-3.286,2.764-5.28c0.113-0.898-1.439-0.571-1.775-0.168
			c-0.741,0.888-1.203,1.896-1.708,2.93c0.612,0.059,1.223,0.117,1.835,0.176c0.502-1.061,1.615-4.055,0.313-4.891
			C89.813,45.172,88.089,46.099,88.981,46.671L88.981,46.671z"/>
	</g>
</g>
<g>
	<g>
		<path fill="#41BEE2" d="M91.691,43.767c-0.023-0.031-0.046-0.062-0.07-0.093c-0.34-0.452-2.201,0.187-1.806,0.713
			c0.023,0.031,0.046,0.062,0.07,0.093C90.226,44.932,92.087,44.293,91.691,43.767L91.691,43.767z"/>
	</g>
</g>
<g>
	<g>
		<path fill="#41BEE2" d="M91.499,42.823c-0.025-0.057-0.054-0.109-0.06-0.171c-0.119,0.194-0.238,0.389-0.356,0.583
			c0.004-0.002,0.008-0.004,0.012-0.006c-0.458,0.055-0.915,0.11-1.372,0.165c-0.168-0.09,0.13,0.164,0.197,0.24
			c0.117,0.135,0.227,0.245,0.37,0.353c0.587,0.444,1.208,0.833,1.735,1.352c0.518,0.51,2.348-0.227,1.788-0.779
			c-0.319-0.314-0.667-0.587-1.028-0.852c-0.319-0.234-0.694-0.433-0.964-0.725c-0.139-0.15-0.26-0.321-0.416-0.455
			c-0.438-0.375-1.088-0.195-1.54,0.059c-0.218,0.123-0.379,0.329-0.356,0.583c0.005,0.062,0.035,0.115,0.06,0.171
			C89.886,44.061,91.787,43.471,91.499,42.823L91.499,42.823z"/>
	</g>
</g>
</svg>
